<?xml version="1.0" encoding="UTF-8"?>
<svg id="Layer_2" data-name="Layer 2" xmlns="http://www.w3.org/2000/svg" viewBox="0 0 1205.95 785.02">
  <defs>
    <style>
      .cls-1 {
        fill: #9cbbb7;
      }

      .cls-2 {
        fill: #ced1a5;
      }

      .cls-3 {
        fill: #e1866a;
      }

      .cls-4 {
        fill: #ee8063;
      }

      .cls-5 {
        fill: #eaf3f2;
      }

      .cls-6 {
        fill: #bed4da;
      }

      .cls-7 {
        fill: #c4d6d3;
      }

      .cls-8 {
        fill: #b2c8c5;
      }

      .cls-9 {
        fill: #f4b586;
      }

      .cls-10 {
        fill: #311c31;
      }

      .cls-11 {
        fill: #deeae8;
      }

      .cls-12 {
        fill: #6da399;
      }

      .cls-13 {
        fill: #ced691;
      }

      .cls-14 {
        fill: #f9b17f;
      }

      .cls-15 {
        fill: #97a7e0;
      }

      .cls-16 {
        fill: #fefefe;
      }
    </style>
  </defs>
  <g id="Layer_1-2" data-name="Layer 1">
    <g>
      <path class="cls-11" d="M941.82,488.02h.01c5.44-5.84,10.86-11.68,16.29-17.53-5.43,5.85-10.86,11.69-16.3,17.53Zm-47.84-70v.03s.01-.01,.02-.01v-.03s-.01,.01-.02,.01Zm-218.93,14.19c.38,.08,.76,.18,1.11,.33h0c-.35-.16-.72-.26-1.11-.33Zm-370.12,18.73h.01c.01-.18,.02-.37,.02-.55-.01,.19-.02,.37-.03,.55Zm-15.03-172.31c.04,.2,.08,.41,.13,.62-.53,3.24-1.07,6.47-1.57,9.71,.5-3.24,1.05-6.47,1.58-9.71h0c-.05-.22-.1-.42-.14-.62Zm-2.28,16.15c.26-1.94,.54-3.88,.84-5.82-.3,1.94-.59,3.88-.84,5.82Zm-83.15,377.83c2.63-.17,5.26-.31,7.9-.42h0c-2.64,.09-5.27,.24-7.9,.42Z"/>
      <path class="cls-6" d="M1093.72,693.92c-4.95-2.98-10.19-5.32-15.96-6.6-8-1.77-15.98-3.61-24.02-5.13s-16.13-2.72-24.35-3.2c-.45,1.26-.89,2.5,.67,3.35,5.3,2.89,2.33,5.83,.05,8.76-.17,.87,.11,1.95-1.05,2.35-.16,.06-.63-.23-.64-.39-.07-1.07,.6-1.68,1.47-2.15-.01-.16,.03-.44-.04-.47-6.44-3.27-2.02-8.27-2-12.56-1.57-1.52-.68-3.46-.88-5.2-.18-1.57,.44-3.55-2.18-3.63-1.4,5.01-.82,10.12-.81,15.21,0,1.32,.07,2.65,0,3.97-.03,.67-.33,1.29-1.21,1.23-.75-.05-1.37-.46-1.28-1.2,.52-4.16-2.23-7.59-2.55-11.55-.21-4.34-1.9-4.03-4.32-1.37,0,6.62,3.46,12.09,6.09,17.85-4.39-4.58-7.29-9.74-6.87-16.27-1.35-.75-2.81-.84-4.32-.98-10.71-.97-21.39-2.16-32.11-3.05-16.81-1.4-33.64-2.62-50.47-3.92-13.91-.99-27.81-1.97-41.71-2.95-.46,4.17-1.8,7.99-4.88,11.94-.28-4.81,4.6-8.02,2.19-12.59-2.61,1.44-2.75,4.5-5.49,7.16,.88-7.02,1.53-13.04,2.42-19.03,.44-2.99,.62-5.96,.17-8.91-.3-1.92-.76-4.09-3.63-3.61l-.03,.02c-3.93,10.05-1.64,20.58-1.68,31.8-3.42-2.75-2.81-6.07-4.03-8.58-1.24-2.52-2.03-5.27-3.33-7.76-.59-1.15-.93-3.41-2.85-2.78-1.59,.52-1.5,2.6-1.28,3.98,.48,2.9-.43,5.11-2.53,6.98-7.07,.61-14.05-1.49-21.13-.66,.28,2.93,.68,5.86,.81,8.79,.33,7.44-2.59,13.06-9.44,16.42-.87,.42-1.6,1.11-2.4,1.68-.04,1.66,.03,3.34-.13,4.99-.48,5-2.81,7.68-7.72,7.19-10.84-1.09-21.64,.59-32.44-.04-3.61-.21-8.49,.08-9.13-4.25-.64-4.34,4.42-4.52,7.46-5.82,5.31-2.27,11.52-2.14,16.23-6.03-2.26-2.88-4.31-5.87-6.05-9.03-.65-1.18-1.26-2.39-1.82-3.63-.56-1.23-1.07-2.49-1.53-3.78-.16-.43-.3-.86-.44-1.3-.14-.43-.27-.87-.4-1.32h-.01c-.19-.19-.37-.36-.55-.54,.12-.1,.24-.2,.36-.3,.04-.84-.13-1.59-.85-2.13-1.31-1.85-2.64-3.57-5.36-2.93-2.28,.53-4.02-.77-5.75-1.97-.78,1.73-1.46,3.18-4.01,2.26-1.62-.58-3.59-.27-5.4-.26-7.73,.04-8.71,.84-8.51,8.41,.11,4.11-2.69,7.8-1.28,12.07,.34,1.04-1.02,1.3-2.14,1.28-4.75-.07-8.22,2.15-10.57,6.22v5.02c1.28,1.22,1.12,2.24-.44,3.06-1.42,3.46-4.03,5.51-7.73,5.07-10.49-1.24-20.96,.43-31.43-.07-3.9-.19-9.4,.38-10-4.36-.59-4.62,5.09-4.74,8.46-6.03,3.56-1.37,7.33-2.19,10.97-3.35,3.15-1.01,5.73-2.69,6.42-6.27-7.45-5.87-10.2-14.08-11.52-23.02-26.88-.36-53.77-.73-80.65-1.1,1.42,2.96-.03,5.86-.11,8.8-.06,2.24-.97,4.21,2.55,5.81,3.29,1.49,1.22,4.93-.87,7.47-1.08-2.09,1.68-4.03-.35-5.75-.33,.09-.66,.12-.92,.26-1.74,.98-1.5,4.93-3.55,4.05-2.5-1.07,.25-3.65,.42-5.56,.38-4.26,1.96-8.41,1.64-12.77-.09-1.26-.34-2.38-.88-3.18-.07-.1-.14-.2-.22-.29-.2-.24-.43-.44-.7-.59-.06-.04-.13-.08-.2-.11-.08-.04-.16-.07-.25-.1-.11-.04-.22-.08-.34-.1-.08-.03-.16-.04-.24-.05s-.16-.02-.24-.03c-.54-.06-1.17,0-1.91,.19-1,7.48-1.54,14.99-1.4,22.79-1.83-4.06-3.66-8.11-5.57-12.37,2.51-.23,1.94,2.72,3.83,2.85,.44-3.74,.87-7.47,1.31-11.19-55.44-.56-110.88,.35-166.31,.97-1.48,.02-2.95,.4-4.42,.62,.29,1.01,.52,3.2-.5,2.49-2.58-1.81-2.29,1.9-4.19,1.3,.03-1.57,.11-3.18,.92-4.79,.67-1.36,.27-3-1.12-3.28-2.17-.44-1.47,1.61-1.56,2.71-.15,1.64-.04,3.29-.04,5.45-2.54-1.85-2.37-4.37-2.92-6.58-.3-.3-.6-.6-.9-.9-1.3,.29-3.57-.9-3.64,1.32-.09,3.02-2.01,2.59-3.74,2.6-11.6,.07-23.21-.22-34.78,1.04-2.39,8.93-8.16,15.04-16.14,19.31,.95,5.17,4.21,8.02,9.16,9.32,4.8,1.27,9.69,2.35,14.17,4.59,1.47,.73,3.15,1.6,2.84,3.63-.28,1.81-1.7,2.7-3.37,3.29-2.73,.97-5.55,.94-8.36,.99-9.12,.19-18.21-.92-27.37-.09-5.55,.51-7.68-1.89-8.17-7.61-.41-4.66,.46-9.26,.78-13.88-.77-1.53-2-2.57-3.39-3.55-5.19-3.65-8.27-8.49-8.14-15.05-2.38,.39-4.44,1.7-6.78,2.35-4.22,1.19-6.89,.2-9.02-3.31-1.37,7.9-5.52,13.73-12.77,17.33-1,.5-1.8,1.4-2.69,2.11,.95,4.95,4.03,7.7,8.8,9.05,4.77,1.34,9.7,2.29,14.17,4.56,1.59,.8,3.58,1.6,3.2,3.89-.34,2.03-2.07,2.8-3.91,3.38-2.58,.8-5.23,.76-7.88,.82-9.11,.19-18.2-.92-27.35-.09-5.4,.49-7.5-1.76-8.14-7.16-.57-4.84,.53-9.59,.85-14.37-4.88-4.39-10.06-8.56-11.43-15.53-3.4,1.96-7.11,2.13-10.93,2-13.36-.46-26.59,1.91-39.94,1.97-5.77,.38-11.55,.77-17.32,1.16,.56,4.82,.61,9.64-.27,14.42-.7,3.76-1.49,7.35,4.11,7.8,1.25,.1,1.27,1.29,1.17,1.63-6.16-3.07-5.98,4.04-9.81,6,1.75-10.62,4.27-20.69,3.07-31.02h-.01c-3.61-1.22-5.25,.7-6.11,3.84-1.8,6.56-.94,13.24-.93,19.88,0,1.04,1.08,2.52-.56,3.01-1.63,.49-2.07-.96-2.75-2.18-2.29-4.11-2.96-9.26-7.51-11.92-.51-.29-1.24-.23-1.86-.33-3.01,5.7,.89,10.36,2.81,15.78-5.51-4.34-6.87-11.6-3.49-16.46,2.11-3.14,3.92-1.44,5.39,.52,1.83,2.42,3.37,5.07,5.63,8.54,.66-6.8-.39-12.79,1.66-18.42h0c-2.64,.09-5.27,.24-7.9,.42-1.49,.1-2.98,.21-4.47,.33s-2.98,.24-4.46,.38c-1.18,.11-2.36,.22-3.55,.34-.77,.07-1.54,.15-2.31,.24-.78,.07-1.56,.16-2.34,.25-.79,.08-1.57,.17-2.34,.26-.76,.08-1.52,.17-2.28,.26-1.73,.2-3.46,.41-5.18,.62-1.18,.14-2.36,.29-3.54,.44-1.2,.15-2.39,.31-3.59,.46-17.7,2.29-35.49,4.01-52.96,7.83-10.01,2.2-20.18,3.96-29.3,9.07-4.02,2.25-4.36,6.35-.65,9.09,2.83,2.09,5.9,3.73,9.28,4.73,12.71,3.78,25.7,6.03,38.76,8.32,23.5,4.11,47.24,5.93,70.89,8.56,17.76,1.97,35.64,2.89,53.48,4.12,16.03,1.11,32.07,2.27,48.12,2.94,13.42,.56,26.83,1.46,40.25,1.92,19.24,.67,38.49,1.04,57.73,2.11,12.44,.7,24.89-.05,37.38,.84,17.06,1.22,34.25,.92,51.34,.94,67.27,.1,134.54,1.54,201.8-.68,16.78-.55,33.56-.06,50.37-.76,22.89-.96,45.81-1.19,68.73-2.08,12.77-.5,25.54-1.29,38.35-1.44,7.26-.09,14.59-.41,21.87-.84,20.34-1.21,40.68-2.5,61-3.97,9.24-.67,18.48-1.52,27.73-2.16,12.86-.9,25.68-2.42,38.51-3.8,10.02-1.08,20.04-2.25,30.03-3.58,15.42-2.06,30.71-4.89,45.81-8.57,5.38-1.31,11.03-2.73,15.36-6.71,3.8-3.47,3.77-5.53-.57-8.15Zm-889.96,6.61c-.18-.39-.38-.75-.49-1.14-.02-.04,.57-.36,.62-.31,.29,.3,.49,.67,.73,1.01-.25,.13-.49,.25-.86,.44Zm320.38,5.54h0c-.06,1.01-.29,2.18-1.42,2.16-1.22-.02-.63-1.25-.62-1.91,.04-2.89-1.59-3.62-4.08-3.36-.16,2.4-.35,4.79,0,7.17-1.07-2.34-3.49-4.61,0-7.17,3.47-2.29,3.61-2.22,5.96,2.95,.21-.13,.42-.26,.63-.39-.16,.18-.31,.37-.47,.55Zm2.9-2.08c-.16,.21-.33,.43-.49,.65-.58-.68,.08-.61,.43-.72,.43-.77,1.1-1.04,1.93-.82,.16,.04,.26,.36,.38,.55-.75,.12-1.5,.23-2.25,.34Zm94.59-20.34c-1.88-.35-2.42-1.85-2.97-3.32-.32-.35-.65-.7-.97-1.05-.3-.36-.59-.74-.88-1.11h0c-.29-.32-.56-.63-.82-.95-.39-.48-.75-.97-1.07-1.48-.22-.34-.42-.69-.6-1.04-.21-.4-.39-.8-.55-1.21-.08-.19-.15-.38-.21-.57-.09-.25-.16-.49-.22-.75-.05-.18-.09-.37-.12-.56-.22-1.07-.27-2.19-.13-3.36,.27-2.21,.8-4.8,4.24-3.68,.46,.31,1.55,.41,1.03,1.15-.44,.63-1.07-.12-1.49-.59-2.75,2.46-1.88,5.46-1.16,8.37,.35,1.42,1.08,2.75,1.63,4.12,.3,.38,.59,.76,.89,1.14,.3,.35,.6,.71,.9,1.07,1.93,.51,3.09,1.54,2.5,3.82Zm10.32-.08c-.07,.06-.46-.22-.7-.34,.22-.37,.44-.74,.66-1.11l.84,.42c-.26,.35-.49,.74-.8,1.03Zm331.39,22.19c-.08-.17-.14-.34-.19-.5-.06-.16-.1-.32-.14-.48-.13-.55-.15-1.09-.06-1.62,.01-.04,.02-.09,.03-.13,.04-.21,.1-.41,.17-.61,.09-.24,.21-.48,.35-.72,.06-.12,.14-.24,.22-.36,.07-.1,.15-.21,.24-.32,.05,.45,.08,.9,.13,1.36,0,.05,0,.09,.01,.14,.05,.53,.1,1.07,.15,1.64,.03,.28,.06,.57,.08,.86,.05,.56,.11,1.16,.17,1.78,.03,.34,.07,.7,.1,1.07-.55-.74-.97-1.44-1.26-2.11Zm3.8,6.62c-.09-.11-.12-.28-.18-.42v-.09c-.63-.37-.89-.8-.98-1.28-.02-.12-.03-.24-.03-.36,0-.09,0-.18,.01-.27-.16-.17-.32-.33-.48-.5,.1,.03,.25,.01,.3,.08,.09,.12,.12,.28,.18,.42,.2,.09,.36,.2,.49,.33,.07,.06,.13,.13,.18,.2,.1,.14,.17,.3,.22,.46,.02,.06,.04,.13,.05,.2,.01,.03,.02,.06,.02,.1,.04,.2,.05,.4,.04,.62,.13,.07,.28,.14,.44,.21-.15-.04-.29-.08-.44-.12,.35,.18,.44,.29,.48,.38,.01,.03,.01,.06,.02,.09-.11-.01-.27,.01-.32-.05Zm6.99-1.26c-.23,.41-.06,1.44-.79,1.05-.59-.31,.03-.96,.48-1.32-.04-.32-.11-.92-.12-.92-6.63,.64-7.06-4.19-7.76-8.77-.66-.07-1.31-.14-1.96-.21v.03s-.02,.02-.02,.03c-.01-.02-.01-.04-.01-.06h.03c.01-.11,.02-.21,.03-.3,.02-.22,.06-.42,.11-.59,.01-.07,.03-.14,.06-.19,.01-.03,.01-.05,.02-.06,.02-.05,.04-.09,.06-.13,.02-.04,.04-.07,.07-.1,.05-.08,.11-.14,.19-.16,.03-.02,.07-.04,.12-.05,.1-.03,.21-.03,.35,.02,.05,.01,.1,.03,.16,.06,.06,.03,.12,.06,.19,.1,.07,.05,.15,.1,.23,.16,.11,.08,.23,.18,.36,.3,1.64,1.82,1.94,.79,2.54-.92,.76-2.18-.3-6.5,3.68-5.63,3.26,.73,1.62,4.51,1.74,6.95,.12,2.39-1.68,4.8,1.64,6.81,1.95,1.18-.8,2.58-1.4,3.9Zm-348.16-54.16h.02v-.02l-.02,.02Z"/>
      <path class="cls-4" d="M830.52,689.19c-.87,.42-1.6,1.11-2.4,1.68-8.4,.41-16.77,.74-24.29-4.11-.32-.21-.95,.09-1.44,.15-2.26-2.88-4.31-5.87-6.05-9.03-.65-1.18-1.26-2.39-1.82-3.63-.56-1.23-1.07-2.49-1.53-3.78-.16-.43-.3-.86-.44-1.3-.14-.43-.28-.87-.41-1.32h0c.03-.31-.04-.58-.19-.84,.04-.84-.13-1.59-.85-2.13-.24-1.63-.28-3.33-.76-4.89-3.49-11.42-6.88-22.88-10.69-34.19-2.9-8.6-4.55-17.63-8.8-25.76-1.82-9.71-4.72-19.07-8.8-28.06-2.05-11.46-6.24-22.26-10.14-33.17,1.43,20.67,1.83,41.36,4.49,61.88,.17,16.74,2.34,33.36,3.13,50.06,.26,5.62,1.32,11.23,1.16,16.82-.24,8.85-5.83,14.41-13,18.65-7.93,0-15.93,.45-23.36-3.19-7.45-5.87-10.2-14.08-11.52-23.02-5.04-26.92-10.19-53.82-15.11-80.77-6.49-35.6-12.97-71.21-17.73-107.1-1.75-13.15-4.32-26.23-3.81-39.6,4.32-3.55,9.28-5.89,14.57-7.51,28.62-8.76,57.87-10.63,87.5-7.6,5.37,.55,11.08,.04,15.81,3.6,1.4,5.98,2.81,11.95,4.21,17.93,3.36,18.93,6.69,37.86,10.08,56.78,3.6,20.07,7.26,40.13,10.89,60.2,.05,.3,.1,.6,.14,.9,.04,.3,.08,.61,.11,.91,.01,.07,.02,.15,.03,.22,.06,.45,.11,.9,.18,1.35,.03,.23,.07,.45,.11,.67v.02c.05,.22,.09,.44,.14,.65,.05,.22,.11,.44,.18,.66,.05,.15,.1,.29,.15,.44h0c.08,.22,.16,.43,.26,.63t0,.02c.1,.21,.2,.42,.32,.62h0c.06,.68,.11,1.34,.17,2.01,.26,.4,.52,.81,.78,1.21,.09,1.61,.18,3.21,.26,4.81-.11,1.1-.26,2.21,.84,2.98v.02c.04,.63,.09,1.26,.14,1.89-.14,1.44,.19,2.79,.85,4.06,.29,.44,.58,.88,.87,1.32-.32,5.69,1.22,11.15,2.22,16.66,1.94,10.7,4.02,21.36,6.05,32.04-.08,1.09-.18,2.19,.7,3.07,.84,10.46,3.72,20.57,5.43,30.88,.28,2.93,.68,5.86,.81,8.79,.33,7.44-2.59,13.06-9.44,16.42Z"/>
      <path class="cls-15" d="M439.12,427.14c-1.5,19.17-3.97,38.21-6.66,57.24-3.84,27.24-8.84,54.28-13.58,81.37-4.11,23.5-8.98,46.86-13.32,70.33-1.59,8.62-3.9,17.12-4.6,25.91-2.39,8.93-8.16,15.04-16.14,19.31-6.77,.08-13.54,.16-20.32,.24-.77-1.53-2-2.57-3.39-3.55-5.19-3.65-8.27-8.49-8.14-15.05,.15-11.26,2.42-22.36,2.3-33.68-.04-3.69,.67-7.56,.93-11.35,1.11-16.01,3.09-31.96,2.63-48.06,2.18-12.4,2.77-24.92,2.44-37.53-1.93,11.54-3.86,23.07-5.8,34.61-3.05,15.93-6.1,31.86-9.17,47.79-3.04,15.76-6.09,31.51-9.13,47.26-1.37,7.9-5.52,13.73-12.77,17.33-1,.5-1.8,1.4-2.69,2.11-6.75,.03-13.51,.05-20.26,.08-4.88-4.39-10.06-8.56-11.43-15.53,.45-7.42,.09-14.83,.83-22.3,2.16-21.86,3.47-43.81,5.12-65.72,1.72-2.61,1.51-5.27,.19-7.96,.29-1.67,.57-3.34,.86-5.01,1.61-2.3,1.53-4.63,.08-6.97,.02-2.36,.03-4.71,.05-7.07,.29-.74,.79-1.46,.86-2.22,.88-10.21,1.31-20.44,1.06-30.69h0c.29-.41,.78-.78,.81-1.2,1.08-13.93,2.12-27.87,3.18-41.81,.61-8.03,1.25-16.05,1.87-24.08,.01-.18,.02-.36,.03-.55,.01-.18,.03-.37,.03-.55,.03-.56,.05-1.12,.05-1.68,.05-2.69-.05-5.38,0-8.07,0-.39,.02-.79,.03-1.19,.02-.5,.05-.99,.08-1.48,.03-.5,.08-1,.13-1.49,.02-.22,.05-.44,.08-.66,.13-1.07,.32-2.14,.59-3.21,27.08-5.74,54.45-8.93,82.12-9.34,17.15-.26,34.26,.34,51.04,4.42Z"/>
      <path class="cls-2" d="M894,418.01v.03s-.01,.01-.02,.01l.02-.04Z"/>
      <path class="cls-2" d="M1032.01,372.17c-3.16,12.11-10.22,22.29-17.19,32.4-11.95,17.37-25.89,33.13-40.35,48.45-5.48,5.8-10.92,11.63-16.35,17.47-5.43,5.85-10.85,11.69-16.29,17.53h-.01c-3.33,1.02-5.72-2.22-8.88-1.98h-2.93c-12.32-3.83-24.33-3.57-34.43,5.18-5.22,4.52-9.79,10.24-10.61,17.77-1.33,.57-2.01,1.56-1.99,3.01-1.42,1.11-1.5,2.82-2.09,4.34-5.39,13.77-12.66,26.27-24.7,35.42-1.22,.93-2.64,1.38-4.21,1.22,9.05-15.73,17.33-31.9,27.53-46.97,10.65-15.72,21.15-31.51,32.99-46.41,10.51-13.24,20.89-26.63,32.51-38.85,13.88-14.62,26.7-30.3,42.07-43.49,.79-.67,2.32-1.51,1.08-2.75-1.05-1.05-2.04,.18-3.01,.81-8.19,5.31-13.86,13.29-20.55,20.11-12.85,13.09-25.06,26.84-36.73,41.06-9.56,11.65-19.26,23.19-28.12,35.39-13.62,18.73-26.85,37.75-38,58.08-4.36,7.94-9.41,15.54-12.77,24.02-1.76,3.7-5.47,3.26-8.59,3.99-.51,.12-1.03,.24-1.54,.35-.51,.12-1.03,.23-1.54,.34-2.57,.56-5.15,1.1-7.7,1.72-.51,.12-1.02,.25-1.53,.38-.41,.11-.82,.21-1.22,.32-.82,.22-1.62,.46-2.43,.71-.4,.12-.8,.25-1.2,.39-.8,.27-1.6,.56-2.39,.86h0c-.12-.21-.22-.42-.32-.63t0-.02c-.1-.2-.18-.41-.26-.62h0c-.05-.16-.1-.3-.15-.45-.07-.22-.13-.44-.18-.66-.05-.21-.09-.43-.14-.65v-.02c-.04-.22-.08-.44-.11-.67-.07-.45-.12-.9-.18-1.35-.01-.07-.02-.15-.03-.22-.03-.3-.07-.61-.11-.91-.04-.3-.09-.6-.14-.9,3.2,.12,4.8-1.88,5.75-4.54,5.71-16.02,14.51-30.65,20.83-46.43,3.32-8.28,8.27-16,12.42-24.01,6.56-12.66,14.21-24.76,21.45-37.06,4.7-8,9.5-15.93,14.26-23.9,.02-.65,.05-1.31,.07-1.96,4.36-2.28,5.95-6.94,8.58-10.57,12.25-17,24.85-33.66,40.36-47.87,11.86-10.87,24.76-20.26,40.54-24.5,15.76-4.24,30.18-1.1,42.67,9.64,8.86,7.61,8.48,17.4,5.86,27.43Z"/>
      <path class="cls-2" d="M297.02,564.98c-.29,1.67-.57,3.34-.86,5.01,.7,2.67-2.44,5.25-.19,7.96-1.65,21.91-2.96,43.86-5.12,65.72-.74,7.47-.38,14.88-.83,22.3-3.4,1.96-7.11,2.13-10.93,2-13.36-.46-26.59,1.91-39.94,1.97-4.19-9.82-13.27-20.53-24.36-20.23-12.12,.33-24.22,1.26-36.36,1.42-12.06,.16-19.71-5.92-25.06-15.69-5.28-9.65-7.64-20.53-12.3-30.47,1.58,.12,2.85-.4,4.05-1.51,9.67-9.03,17.32-19.41,19-32.81,.9-7.14,1.93-13.07,10.26-14.59,1.22-.22,2.45-1.12,3.4-2,2.65-2.45,5.34-1.81,8.24-.6,6.11,2.54,12.19,5.19,18.43,7.39,17.29,6.08,33.7,14.19,50.03,22.33,10.9,5.44,21.74,11.21,31.99,17.91,1.77,1.16,3.69,2.58,6.11,2.41,.12-1.68-.87-2.05-1.69-2.61-13.51-9.2-28.2-16.29-42.7-23.7-5.41-2.77-10.81-5.58-16.64-7.53-3.9-1.3-5.82-3.65-2.53-7.77,2.05-2.58,3.26-5.71,3.61-9.08,.75-7.21,4.29-11.97,10.7-15.96,10.87-6.75,19.85-15.87,26.72-26.86,.87,.1,1.71,.35,1.89,1.31,.89,4.56,3.18,8.53,4.95,12.73,1.02,2.42,3.02,3.85,4.1,6.1,3.88,8.07,8.84,15.37,16.16,20.81-.02,2.36-.03,4.71-.05,7.07,.5,2.33-1.28,4.63-.08,6.97Z"/>
      <path class="cls-8" d="M1021.04,607.04c-3.07,8.94-5.71,18.05-9.3,26.77-6.08,14.81-14.09,22.88-31.48,22.16-9.11-.38-18.2,.16-27.34-.75-13.2-1.31-21.65,3.66-25.98,13.75-13.91-.99-27.81-1.97-41.71-2.95-.37-1.76-.36-3.79-3.24-3.05-1.72,.45-1.92-.65-1.49-2.04,1.38-4.56,.74-9.31,1.25-13.96,.27-2.55-.26-5.39-2.49-7.19-1.34-1.08-3.44-2.58-3.25,1.2l-.03,.02c-2.02-.44-2.63,.78-2.95,2.44-.56,2.9-1.18,5.79-1.75,8.68-.25,1.22,.57,2.96-1.13,3.47-1.73,.52-1.89-1.48-2.8-2.3-1.17-1.07-2.1-2.86-4.08-2.14-2.09,.77-2.16,2.74-2.29,4.6-.21,2.96-.47,5.92-.7,8.89-7.07,.61-14.05-1.49-21.13-.66-1.71-10.31-4.59-20.42-5.43-30.88,3.9-1.65,6.88-4.59,10.19-7.08,17.59-13.2,35.92-25.28,55.24-35.82,9.57-5.23,19.05-10.63,28.92-15.28,9.44-4.45,18.7-9.32,28.28-13.43,11.2-4.81,22.44-12.75,34.65-2.01,.6,.53,1.46,.79,2.21,1.15,1.15,.57,1.79,1.44,1.72,2.77-.4,8.27,2.8,15.65,6.3,22.76,4.38,8.92,10.74,16.27,19.81,20.88Z"/>
      <path class="cls-3" d="M520.49,420.39c-3.16-2.25-2.57-3.76-.3-6.25,3.8-4.17,7.09-8.8,10.76-13.09,2.1-2.47,2.32-4.11-1.08-5.49-3.38-1.38-6.65-3.06-9.94-4.65-6.95-3.35-13.88-6.72-22.21-10.76,7.01-1.87,12.5-3.34,19.39-5.18-7.42-4-13.55-7.5-19.88-10.62-3.2-1.58-3.84-3.33-2.68-6.7,3.1-8.95,5.73-18.06,8.74-27.04,1-2.99,.83-5.44-1.33-7.81-10.71-11.77-22.41-22.2-36.89-29.3-5.23-2.57-11.03-3.55-16.05-6.53-12.02-1.94-23.55-1.13-34.39,5.22-11.94,7-17.42,18.1-20.54,30.88-1.44,5.89-1.05,11.86-.89,17.82,1.41,.36,2.63-.13,3.77-.86,8.14-5.19,16.12-3.47,24.04,.52,1.1,.55,2.89,.9,2.44,2.63-.37,1.41-1.96,1.6-3.27,1.79-.82,.12-1.67,.02-2.49,.11-.76,.07-1.71-.18-2.09,1.03,1.05,1.49,2.95,.99,4.35,1.68,1.35,.67,3.13,.88,2.89,2.81-.23,1.76-1.97,2.19-3.43,2.33-2.15,.19-4.29,.25-6.45,1.5,2.68,.82,5.2,1.58,7.71,2.37,1.09,.34,2.43,.52,2.18,2.15-.22,1.37-1.28,1.94-2.52,1.97-2.65,.08-5.31,.03-8.45,.03,1.69,2.02,3.92,1.84,5.58,2.78,1.17,.67,2.61,1.18,2.38,2.82-.27,1.89-2.01,1.19-3.19,1.52-3.22,.93-6.36-2.25-9.56-.11,10.03,12.12,22.66,21.01,35.99,29.03,.98,.59,1.95,1.19,2.93,1.78,3.46,1.81,7.09,3.38,10.34,5.52,2.02,1.34,5.25,1.49,5.7,4.77-.17,.96-.33,1.92-.49,2.87-.01,.97-.03,1.95-.04,2.92,2.77-3.07,1.72-7.05,2.41-10.59,.67-3.45,1.4-6.84,3.28-9.79,.71-1.1,1.74-2.79,3.59-1.81,1.39,.74,1.46,2.28,.96,3.54-1.44,3.66,.03,7.55-.68,11.39,1.33-2.87,2.57-5.79,4.01-8.6,.83-1.61,1.87-3.14,3.05-4.5,.79-.91,1.57-2.54,3.15-1.84,1.29,.57,.74,2.07,.75,3.16,.02,5.11,.31,10.22-.25,15.45,1.06-2.85,2.05-5.73,3.2-8.54,.81-1.99,1.63-4.03,2.83-5.8,.96-1.42,2.15-3.38,4.34-2.63,2.52,.86,2.01,3.29,1.7,5.15-.7,4.28-1.71,8.5-2,12.93,1.59-2.84,3.16-5.68,4.75-8.5,.88-1.56,1.59-3.82,3.76-3.35,1.94,.41,2.54,2.62,2.57,4.44,.1,6.61,.9,13.32-2.13,19.6-.17,.36,.03,.9,.05,1.36,2.28-3.16,5.12-1.35,7.6-.62,7.54,2.21,14.99,4.77,24.46,5.38-4.87-4.08-8.46-7.45-12.43-10.29Zm-88.34-116.55c-4.86,2.32-9.34,5.14-12.69,9.43-4.26,5.46-5.49,11.57-3.75,18.32,.36,1.44,1.25,3.66-1.18,4.11-1.91,.34-2.22-1.6-2.51-3.08-.4-2.11-.76-4.23-.91-5.03-.08-12.13,9.01-24.16,19.51-27.21,1.33-.39,2.78-.78,3.52,.71,.91,1.85-.92,2.24-1.99,2.75Z"/>
      <path class="cls-7" d="M894,418.01l-.02,.04v-.03s.01-.01,.02-.01Z"/>
      <path class="cls-7" d="M893.93,420c-4.76,7.97-9.56,15.9-14.26,23.9-7.24,12.3-14.89,24.4-21.45,37.06-4.15,8.01-9.1,15.73-12.42,24.01-6.32,15.78-15.12,30.41-20.83,46.43-.95,2.66-2.55,4.66-5.75,4.54-3.63-20.07-7.29-40.13-10.89-60.2-3.39-18.92-6.72-37.85-10.08-56.78,3.88-8.04,7.3-16.35,11.75-24.06,9.2-15.94,18.49-32.04,35.22-41.58,12.99-7.41,26.32-7.47,39.12,.46,8.55,5.29,10.96,14.04,11.66,23.53,.53,7.05-1.16,13.82-2.02,20.71-.98,.63-1.04,1.29-.05,1.98Z"/>
      <path class="cls-1" d="M298.01,548.72c-.07,.76-.57,1.48-.86,2.22-7.32-5.44-12.28-12.74-16.16-20.81-1.08-2.25-3.08-3.68-4.1-6.1-1.77-4.2-4.06-8.17-4.95-12.73-.18-.96-1.02-1.21-1.89-1.31,0-.83-.19-1.56-1.01-1.98-1.74-11.98-14.43-23.27-27.17-24.17-2.15-4.94-6.4-8.06-10.27-11.37-12.94-11.09-25.98-22.06-39.68-32.26-9.56-7.12-19.16-14.18-29.02-20.87-.93-.63-2.12-1.97-2.98-.78-1.18,1.63,.81,2.06,1.79,2.73,6.55,4.51,13.24,8.84,19.66,13.52,16.07,11.69,31.54,24.16,46.28,37.48,4,3.61,9.12,6.22,11.64,11.39-4.77,.64-9.78-.12-14.24,2.38-.99,.03-1.98,.06-2.97,.1-.37-.01-.72,.03-1.06,.11-.09,.02-.19,.05-.28,.08-.69,.21-1.32,.59-1.96,.95-.14,.08-.28,.16-.43,.24-.26,.14-.53,.28-.8,.39-4.69,1.96-9.24,4.39-14.39,5.05-17.32-13.16-35.1-25.77-51.38-40.24-9.7-8.61-19.15-17.56-25.09-29.44-5.7-11.38-3.23-21.04,7.33-28.21,13.03-8.85,26.72-7.67,40.5-2.27,9.96,3.9,19.06,9.36,27.28,16.26,.58,.48,1.48,.58,2.24,.85,13.95,11.97,27.32,24.49,39.78,38.08,13.24,14.44,24.99,30.05,37.26,45.26,5.59,6.94,10.59,14.35,15.76,21.64,.74,1.04,1.48,2.08,2.23,3.11h0c.25,10.26-.18,20.49-1.06,30.7Z"/>
      <path class="cls-13" d="M449.02,286.97c-12.02-1.94-23.55-1.13-34.39,5.22-11.94,7-17.42,18.1-20.54,30.88-1.44,5.89-1.05,11.86-.89,17.82-2.46,4.68-5.45,8.91-11.33,9.08-16.19,.47-32.35,.81-47.02-8.05-6.65-4.01-12.16-9.38-14.25-16.55-2.91-9.98-3.48-20.47-.24-30.69,.66-2.09,.73-3.85-.35-5.68,.26-2.21-1.08-3.75-2.3-5.29-5.59-7.04-12.82-11.31-21.72-12.69,1.96-4.15,6.31-5.24,9.83-6.96,15.23-7.4,31.26-12.36,48.19-14.1,.05,1.7,.13,3.43,2.19,3.97,3.86,1.01,6.76,3.8,10.41,5.34,9.46,3.98,14.59,1.01,14.37-9.01,0-.33-.04-.66-.05-.99,11.49-.1,22.11,3.57,32.63,7.58,10.79,4.11,20.42,10.39,29.01,17.89,3.24,2.83,4.36,8.08,6.45,12.23Z"/>
      <path class="cls-3" d="M669.09,340.27c-1.54,5.52-4.76,10.65-4.04,16.72-3.7,3.13-6.55-.09-9.73-1.23-1.91-.69-4.45-2.34-5.87-.68-1.41,1.64,1.57,2.84,2.26,4.42,.19,.45,.26,.96,.38,1.44l-.14,.16c-2.39-1.09-4.75-2.22-7.17-3.23-1.14-.48-2.55-1.52-3.48,.16-.71,1.3-.1,2.58,.89,3.61,2.45,2.57,4.9,5.13,8.2,8.6-4.07-1.61-7.05-2.84-10.07-3.96-.92-.35-2.09-.53-2.79,.34-.93,1.16-.06,2.13,.66,3.07,1.74,2.26,4.6,3.63,5.61,6.58-1.59,.88-2.45-.26-3.47-.6-1.94-.66-4.36-3.07-5.76-.85-1.57,2.47,1.79,3.79,3.26,5.37,1.1,1.19,2.69,1.91,3.92,3.01,1.4,1.24,4.03,1.11,4.21,3.73-7.1,9.85-12.17,21.01-19.73,30.57-1.03,1.29-2.05,2.65-3.3,3.71-2.6,2.19-5.18,3.2-8.22,.23-2.96-2.88-6.24-5.51-9.66-7.85-3.11-2.14-2.44-3.94-.44-6.29,3.45-4.05,6.66-8.3,10.15-12.32,2.47-2.84,3.04-4.63-1.2-6.51-8.82-3.93-17.41-8.35-26.1-12.56-1.46-.71-3-1.29-4.08-2.99,5.28-2.45,11.27-2.4,17.2-5.42-6.65-3.59-12.52-6.97-18.59-9.95-3.26-1.59-4.22-3.06-2.9-6.85,4.25-12.24,8.55-24.49,11.14-37.25,1.53-7.56,4.47-14.62,8.52-21.19,1.1-.25,1.74,.38,2.54,1.05,2,1.7,4.18,3.18,6.28,4.76,1.12,.85,2.44,1.45,3.62,.57,1.52-1.14,.32-2.31-.39-3.39-.36-.55-.71-1.14,0-1.81,2.05,.06,2.82,1.98,4.13,3.08,1.34,1.12,2.85,2.29,4.36,1.01,1.39-1.19,.96-3.07,.01-4.53-1.19-1.83-1.86-3.82-2.34-5.91l.1-.1c2.38,.1,3.33,2.53,5.33,3.27,1.02,.37,1.79,1.96,2.96,1.14,1.21-.85,.84-2.43,.42-3.63-.81-2.27-1.85-4.47-2.8-6.7l.1-.08c.86,.4,1.81,.7,2.57,1.24,1.52,1.07,3.18,3.43,4.84,1.87,1.46-1.37,.58-3.83-.58-5.85-1.21-2.09-3.57-3.44-3.88-6.08,16.2-4.46,30.39-2.04,41.19,12,8.22,18.44,7.2,37.17,1.89,56.1Z"/>
      <path class="cls-5" d="M586.95,121.79c.36,5.92-5.59,10.3-12.53,10.28-22.34-3.12-42.49,3.13-62.99,4.85-8.11,.69-16.27,.33-24.29-1.32-10.03-2.07-20.02-4.31-30.06-6.31-4.5-.9-9.26-.22-13.15,1.6-8.46,3.94-17.44,5.32-26.39,5.91-6.3,.41-12.81-1.52-18.31-5.25-3.89-2.63-5.09-6.52-3.83-10.97,1.19-4.23,4.76-5.04,8.57-5.53,6.45-.84,11.17-3.53,13.52-10.35,1.91-5.54,6.72-8.84,12.38-10.74,6.78-2.29,13.77-2.14,20.71-1.8,6.46,.31,10.88-2.14,14.71-7.36,10.44-14.24,24.99-16.86,41.28-13.35,9.79,2.11,17.12,7.98,22.22,16.36,3.64,5.99,8.83,8.93,15.38,10.52,9.97,2.42,19.85,5.15,29.73,7.9,6.05,1.68,12.7,9.79,13.05,15.56Z"/>
      <path class="cls-5" d="M1064.87,172.83c-.49,5.01-5.1,5.11-8.63,6.08-1.85,.51-3.97,.09-7.15,.09-18.02-2.42-36.52,3.2-55.37,4.81-14.25,1.22-28.4,.19-42.33-3.89-11.36-3.33-22.62-4.59-34.45,.31-11.26,4.67-23.51,5.72-35.47,1.43-3.84-1.37-6.94-4.28-8.31-8.11-1.6-4.51,1.04-8.88,6.35-10.07,8.04-1.79,13.82-4.9,17.53-13.33,3.54-8.04,12.42-10.4,20.96-10.99,3.93-.26,7.94-.58,11.89,.67,5.85,1.84,9.53-1.77,12.51-5.92,5.21-7.29,11.71-13.4,20.43-14.97,11.93-2.15,24.06-2.35,34.51,5.96,4.71,3.73,9.06,7.6,11.7,13.2,2.08,4.41,6.53,5.73,10.77,7.08,11.51,3.67,23.71,4.75,34.94,9.62,8.18,3.56,10.84,10.68,10.12,18.03Z"/>
      <path class="cls-12" d="M798.89,416.12c-1.15-.1-2.32-.11-3.46-.31-27.46-4.65-54.9-4.68-82.35,.09-15.44,2.69-30.43,6.92-45.04,12.52-2.91-10.59-3.47-21.54-4.89-32.35-.56-4.27-.73-8.59-1.08-12.88,22.82-2.96,44.96-8.42,65.86-18.21,12.52-5.87,24.34-12.89,34.06-22.95,7.24-7.51,11.67-16.76,16.07-26.02,5.64,15.99,9.17,32.55,12.56,49.11,3.09,15.1,5.49,30.34,8.12,45.54,.31,1.78,.11,3.64,.15,5.46Z"/>
      <path class="cls-8" d="M1088.04,513.93c-9.72,2.65-19.46,5.2-29.15,7.97-24.49,7.02-48.69,14.99-72.45,24.19-14.01,5.42-27.91,11.23-41.53,17.58-12.05,5.61-11.86,6.05-17.28-5.69-.4-.89-.52-1.9-.8-2.84-4.77-15.93-2.49-31.69,.67-47.54,1.46-7.3,5.27-13.97,5.44-21.56,3.16-.24,5.55,3,8.88,1.98h.01c5.3,3.8,11.62,5.3,17.54,7.7,8.13,3.28,16.24,6.63,24.86,8.53,5.61,1.24,11.1,1.14,16.64-.64,11.97-3.85,23.6-8.84,36.06-11.09,20.79-3.75,41.52,6.6,51.11,21.41Z"/>
      <path class="cls-8" d="M304.93,450.94c-.62,8.03-1.26,16.05-1.87,24.08-1.06,13.94-2.1,27.88-3.18,41.81-.03,.42-.52,.79-.81,1.19h0s-.01,.01-.01,.01c-.75-1.03-1.49-2.07-2.22-3.12-5.17-7.29-10.17-14.7-15.76-21.64-12.27-15.21-24.02-30.82-37.26-45.26-12.46-13.59-25.83-26.11-39.78-38.08,.09-16.95,15.89-28.96,32.65-25.22,12.92,2.88,22.52,10.87,31.89,19.4,3.14,2.87,6.13,5.91,9.79,9.45-.88-8.96-1.63-17.32-2.56-25.66-.27-2.45-2.22-2.74-4.43-2.97-16.71-1.77-31.73-8.02-45.38-17.67-.78-.56-1.3-1.48-1.94-2.23h0c2.85-.44,4.43,2.01,6.68,2.96,2.15,.91,3.16,.39,3.29-1.89,.61-11.02-2.39-21.33-6.27-31.45-.21-.56-.81-1.09-1.36-1.38-9.14-4.65-11.08-13.28-12.31-22.28-.15-1.09-.49-2.52,.55-3.28,1.27-.91,2.12,.51,2.98,1.13,6.37,4.61,12.75,10.54,12.57,18.24-.32,14.29,8.34,27.06,5.82,41.43-.42,2.42,.98,3.55,2.95,4.54,9.85,4.97,20.13,8.5,31.11,9.97,3.41,.46,4.79-.32,4.02-4.1-3.4-16.62-8.36-32.73-14.95-48.35-4.88-11.57-10.71-22.66-17.4-34.1,2.49-.01,3.67,3.97,6.13,.52-2.08,4.45,.5,7.08,2.12,10.14,12.01,22.73,21.22,46.5,25.98,71.85,2.17,11.55,3.63,23.22,3.99,34.98,.14,4.32,3.52,6.65,5.52,9.77,5.55,8.64,11.45,17.06,17.17,25.58,.59,.87,1.11,1.66,2.28,1.63Z"/>
      <path class="cls-2" d="M228.58,557.29c-4.02,9.06-3.48,9.48-12.99,4.77-1.75-.86-3.71-1.32-5.52-2.08-17.62-7.34-35.7-13.45-53.73-19.62-13.44-4.6-27.24-8.18-40.92-12.06-4.41-1.25-9.06-1.7-13.41-3.09-9.48-3.02-19.11-5.11-28.98-6.22,9.5-13.31,21.63-22.09,38.58-23.08,13.07-.77,25.44,2.46,37.27,7.12,11.93,4.7,23.09,4.57,34.51-.92,6.54-3.14,13.8-4.75,19.77-9.13,5.15-.66,9.7-3.09,14.39-5.05,.27-.11,.54-.25,.8-.39,.15-.08,.29-.16,.43-.24,.64-.36,1.27-.74,1.96-.95,.09-.03,.19-.06,.28-.08,.33-.09,.69-.13,1.06-.12h0c-.38,3.54,2.17,6.22,2.79,9.37,2,10.03,5.7,19.62,6.65,29.95,1,10.9,1.5,21.82-2.94,31.82Z"/>
      <path class="cls-13" d="M445.02,409.94c-.27,4.14-.17,8.3-.23,12.46-3.31-.29-6.62-.56-9.93-.86-44.79-4.09-89.39-3.4-133.62,5.72-.8-1.49-1.08-3.07-1.14-4.76-.9-22.81-1.31-45.63-.87-68.46,7.21,8.49,15.9,14.96,26.33,18.94,3.2,1.22,6.75,1.62,9.83,3.05,4.7,2.16,9.71,2.98,14.64,3.89,7.29,1.35,14.71,1.97,22.07,2.93,10.79,1.4,20.96,.95,27.58-9.52,1.81-2.86,3.15-6.04,7.41-5.37,10.03,12.12,22.66,21.01,35.99,29.03,.98,.59,1.95,1.19,2.93,1.78-2.18,3.55-.74,7.45-.99,11.17Z"/>
      <path class="cls-12" d="M749.81,294.1c-4.87,22.55-18.13,38.34-38.94,47.85-14.69,6.72-30.14,11.25-45.82,15.04-.72-6.07,2.5-11.2,4.04-16.72,5.31-18.93,6.33-37.66-1.89-56.1,7.34-7.25,15.41-13.45,24.99-17.48-.38,8.04,3.19,11.58,9.51,8.64,6.94-3.24,13.19-7.72,16.28-15.3,19.14-1.76,37.85-.56,55.36,8.34,3.67,1.86,7.13,4.24,8.83,8.33-.65,.05-1.3,.13-1.95,.16-11.37,.46-21.64,4.08-30.58,11.12-2.28,1.79-4.55,4.22,.17,6.12Z"/>
      <path class="cls-9" d="M423.45,343.18c-.37,1.41-1.96,1.6-3.27,1.79-.82,.12-1.67,.02-2.49,.11-.76,.07-1.71-.18-2.09,1.03,1.05,1.49,2.95,.99,4.35,1.68,1.35,.67,3.13,.88,2.89,2.81-.23,1.76-1.97,2.19-3.43,2.33-2.15,.19-4.29,.25-6.45,1.5,2.68,.82,5.2,1.58,7.71,2.37,1.09,.34,2.43,.52,2.18,2.15-.22,1.37-1.28,1.94-2.52,1.97-2.65,.08-5.31,.03-8.45,.03,1.69,2.02,3.92,1.84,5.58,2.78,1.17,.67,2.61,1.18,2.38,2.82-.27,1.89-2.01,1.19-3.19,1.52-3.22,.93-6.36-2.25-9.56-.11-4.26-.67-5.6,2.51-7.41,5.37-6.62,10.47-16.79,10.92-27.58,9.52-7.36-.96-14.78-1.58-22.07-2.93-4.93-.91-9.94-1.73-14.64-3.89-3.08-1.43-6.63-1.83-9.83-3.05-10.43-3.98-19.12-10.45-26.33-18.94-7.48-10.86-11.18-22.85-12.41-36.05-.73-7.88-.19-15.57,.8-23.21,.25-1.94,.54-3.88,.84-5.82,.5-3.24,1.04-6.47,1.57-9.71h.01c3.45-3.05,7.33-2.94,11.45-1.76,7.28,2.08,13.22,6.27,18.52,11.51,1.08,1.83,1.01,3.59,.35,5.68-3.24,10.22-2.67,20.71,.24,30.69,2.09,7.17,7.6,12.54,14.25,16.55,14.67,8.86,30.83,8.52,47.02,8.05,5.88-.17,8.87-4.4,11.33-9.08,1.41,.36,2.63-.13,3.77-.86,8.14-5.19,16.12-3.47,24.04,.52,1.1,.55,2.89,.9,2.44,2.63Z"/>
      <path class="cls-14" d="M781.14,283.14c-.22-3.2-2.63-3.1-4.73-2.85-7.95,.95-15.45,3.28-22.4,7.39-2.6,1.53-3.07,4.11-4.2,6.42-4.87,22.55-18.13,38.34-38.94,47.85-14.69,6.72-30.14,11.25-45.82,15.04-3.7,3.13-6.55-.09-9.73-1.23-1.91-.69-4.45-2.34-5.87-.68-1.41,1.64,1.57,2.84,2.26,4.42,.19,.45,.26,.96,.38,1.44,.81,.05,1.53,.26,1.94,1.05,1.29,.07,1.96,.73,1.97,2.03-1.25-.05-1.98-.65-2.04-1.95-.81-.03-1.55-.21-2.01-.97-2.39-1.09-4.75-2.22-7.17-3.23-1.14-.48-2.55-1.52-3.48,.16-.71,1.3-.1,2.58,.89,3.61,2.45,2.57,4.9,5.13,8.2,8.6-4.07-1.61-7.05-2.84-10.07-3.96-.92-.35-2.09-.53-2.79,.34-.93,1.16-.06,2.13,.66,3.07,1.74,2.26,4.6,3.63,5.61,6.58-1.59,.88-2.45-.26-3.47-.6-1.94-.66-4.36-3.07-5.76-.85-1.57,2.47,1.79,3.79,3.26,5.37,1.1,1.19,2.69,1.91,3.92,3.01,1.4,1.24,4.03,1.11,4.21,3.73,2.95,1.73,5.87,1.57,8.12-.93,2.26-2.5,4.9-3.09,7.99-2.81,22.82-2.96,44.96-8.42,65.86-18.21,12.52-5.87,24.34-12.89,34.06-22.95,7.24-7.51,11.67-16.76,16.07-26.02,3.01-10.77,5.01-21.64,3.08-32.87Zm-129.15,87.9c-.14-.15-.28-.29-.42-.43,.15,.13,.29,.27,.44,.4,.14,.14,.27,.28,.4,.43-.14-.14-.28-.27-.42-.4Zm5.24-5.72c-.4-.42-.81-.85-1.21-1.28,.52,.23,1.06,.45,1.58,.68-.12,.2-.25,.4-.37,.6Zm9.48-2.52c.02,.13,.08,.28,.04,.38-.03,.09-.2,.13-.3,.19-.07-.11-.14-.21-.21-.32,.15-.08,.31-.17,.47-.25Zm1.31,6.47c-.01,.09-.03,.17-.05,.26-.02,.09-.05,.17-.09,.25-.04,.08-.09,.16-.14,.24-.03,.06-.08,.11-.12,.17-.08,.08-.17,.16-.27,.24t-.01,.01c-.1,.08-.22,.15-.35,.22-.26,.14-.59,.26-.98,.36h0s-.01,.02-.01,.02h-.01c-.12,.44-.23,.87-.35,1.3-.08-.06-.14-.12-.19-.17-.11-.1-.18-.2-.21-.28-.01-.04-.02-.08-.02-.12s0-.08,.02-.11c.01-.03,.03-.05,.04-.07,.01-.02,.03-.04,.05-.06,.14-.16,.38-.28,.57-.41,.03-.03,.06-.06,.09-.08t.01-.02h.01c.45-1.71,.9-3.4,1.36-5.1,.18,1.1,.77,2.34,.65,3.35Z"/>
      <path class="cls-8" d="M1089.9,542.68c-4.02,8.85-10.31,16.18-17.89,22.32-5.66-.03-11.14,1.58-16.72,1.91-24.18,1.43-47.59-1.55-69.37-12.99-1.21-.64-3.55-.36-3.43-2.21,.13-1.85,2.31-2.13,3.84-2.66,19.81-6.89,39.41-14.41,59.59-20.25,14.59-4.22,29.07-8.82,43.99-11.8,5.19,8.56,3.78,17.34-.01,25.68Z"/>
      <path class="cls-2" d="M173.62,553.2c-16.22,8.91-33.5,14.18-52.05,14.75-10.27,.31-20.56,.4-30.68-1.9-12.88-6.62-22.87-25.85-20.79-40.03,.3-2.02,1.04-3.83,2.74-5.12h.01c4.22,.8,8.54,1.25,12.64,2.45,17.76,5.18,35.95,8.68,53.57,14.49,11.3,3.72,22.66,7.31,33.98,11,1.11,.36,2.41,.52,2.63,1.91,.24,1.46-1.04,1.89-2.05,2.45Z"/>
      <path class="cls-5" d="M1155.58,253.37c-1.02,2.15-2.7,3.76-5.43,3.69-2.5-.07-4.99-.02-7.49-.02-8.97-.17-17.74,1.65-26.57,2.84-6.74,.9-13.35-.21-19.63-2.07-8.22-2.45-15.96-1.95-23.83,.84-5.19,1.84-10.34,2.1-15.39-.63-2.3-1.24-4.25-2.61-4.27-5.55s2.55-3.37,4.41-4.01c3.74-1.29,6.5-3.21,8.65-6.77,3.4-5.64,9.38-6.43,15.29-5.88,4.01,.37,6.76-.29,9.39-3.75,7.75-10.2,24.53-11.26,31.61-1.26,5.64,7.95,13.3,9.82,21.64,11.16,4.37,.7,7.74,2.42,10.43,5.93,1.36,1.78,2.1,3.56,1.19,5.48Z"/>
      <path class="cls-5" d="M141.78,257.14c-1.23,2.88-4.14,2.95-6.87,2.91-1.67-.02-3.33,0-5,0-8.95,.1-17.72,1.92-26.6,2.75-6.8,.63-13.57,.52-20.19-1.6-6.84-2.18-13.54-3.44-20.64-.21-5.5,2.51-11.51,2.9-17.52,1.09-3.25-.99-5.38-3.27-5.58-6.3-.2-3.21,2.91-4.14,5.54-4.67,2.99-.6,5.24-1.96,6.52-4.79,2.35-5.22,6.87-7.33,12.11-7.16,6.49,.23,11.34-1.04,15.93-6.59,6.74-8.15,24.1-6.69,30.88,3.29,2.4,3.52,5.21,5.4,9.39,6.46,5.1,1.3,10.13,2.96,15.25,4.3,1.55,.4,3.2,1.28,4.28,2.43,2.06,2.21,3.84,4.94,2.5,8.09Z"/>
      <path class="cls-5" d="M731.34,78.37c-1.14,2.54-2.88,3.9-5.82,3.75-2.98-.16-5.99-.04-10.19-.04-6.06-1.43-13.06,.96-19.96,2.26-9.45,1.77-18.06-.88-26.93-2.61-6.34-1.23-12.57-1.14-18.54,1.44-6.1,2.63-11.91,2.18-17.65-.96-2.05-1.13-3.37-2.54-3.24-5.1,.13-2.76,2.28-3.23,4.13-3.51,4.55-.7,7.35-2.86,8.95-7.38,1.56-4.44,6.04-4.69,10-5.09,2.48-.25,4.99-.07,7.49-.05,2.84,.03,5.08-.82,6.7-3.43,6.62-10.66,26.14-11.42,32.62-1.1,5.07,8.05,13.41,9.02,21.53,10.47,3.76,.67,6.99,2.07,9.42,5,1.52,1.82,2.63,3.82,1.49,6.35Z"/>
      <path class="cls-1" d="M1055.29,566.91c5.58-.33,11.06-1.94,16.72-1.91-.09,.19-.19,.36-.29,.53-.1,.17-.21,.34-.33,.49-.04,.06-.08,.11-.13,.17-.01,.02-.03,.05-.05,.07-.1,.13-.21,.25-.33,.36-.11,.12-.23,.23-.35,.32-.2,.17-.41,.32-.64,.46-.18,.1-.37,.2-.57,.28-.2,.09-.41,.16-.62,.22-.22,.06-.45,.11-.68,.15-.83,.01-1.68-.13-2.48,.03-15.11,3.08-30.23,2.95-45.29-.08-7.64-1.54-15.18-3.56-22.83-5.38,1.36,18.32,11.05,33.41,24.56,42.36-.31,.69-.63,1.38-.94,2.06-9.07-4.61-15.43-11.96-19.81-20.88-3.5-7.11-6.7-14.49-6.3-22.76,.07-1.33-.57-2.2-1.72-2.77-.75-.36-1.61-.62-2.21-1.15-12.21-10.74-23.45-2.8-34.65,2.01-9.58,4.11-18.84,8.98-28.28,13.43-9.87,4.65-19.35,10.05-28.92,15.28-19.32,10.54-37.65,22.62-55.24,35.82-3.31,2.49-6.29,5.43-10.19,7.08-.88-.88-.78-1.98-.7-3.07,10.11-6.27,18.84-14.44,29.01-20.64,8.47-5.17,16.56-10.99,25.18-15.89,13.33-7.57,26.95-14.62,40.48-21.83,2.52-1.35,2.85-2.92,1.27-5.2-3.55-5.14-5.36-11.07-6.5-17.03-.68-3.56-2.18-5.7-5.1-7.22-13.94-7.26-24.99-17.79-34.38-30.22-.02-1.45,.66-2.44,1.99-3.01,.87,1.37,1.63,2.82,2.62,4.1,7.98,10.33,17.73,18.61,28.93,25.34,3.73,2.24,4.4,1.41,4.51-2.48,.29-10.58,1.81-20.96,4.34-31.3,1.53-6.2,4.01-12.19,4.64-18.61h2.93c-.17,7.59-3.98,14.26-5.44,21.56-3.16,15.85-5.44,31.61-.67,47.54,.28,.94,.4,1.95,.8,2.84,5.42,11.74,5.23,11.3,17.28,5.69,13.62-6.35,27.52-12.16,41.53-17.58,23.76-9.2,47.96-17.17,72.45-24.19,9.69-2.77,19.43-5.32,29.15-7.97,1.29,.61,1.87,1.66,1.87,3.07-14.92,2.98-29.4,7.58-43.99,11.8-20.18,5.84-39.78,13.36-59.59,20.25-1.53,.53-3.71,.81-3.84,2.66-.12,1.85,2.22,1.57,3.43,2.21,21.78,11.44,45.19,14.42,69.37,12.99Z"/>
      <path class="cls-9" d="M393.69,215.23c-.92,11.01-6.76,17.89-17,21.37-2.11-2.54-5.1-.93-7.61-1.6-.24-.77-1.06-1.06-1.36-.54-.42,.71,.62,.68,1.04,.95,.44,.33,.88,.67,1.33,.99,.22,.16,.44,.32,.67,.46,.33,.22,.68,.43,1.03,.61,.35,.18,.71,.33,1.08,.44,.93,.29,1.93,.35,3.05,.02h.01c.17-.05,.35-.11,.53-.18,.16,1.97,.52,3.95,.44,5.91-.14,3.05,2.03,4.22,4.03,5.61,.01,.33,.04,.66,.05,.99,.22,10.02-4.91,12.99-14.37,9.01-3.65-1.54-6.55-4.33-10.41-5.34-2.06-.54-2.14-2.27-2.19-3.97,.22-1.41,1.05-2.8,2.24-3.06,6.12-1.31,5.77-6.87,7.56-11.03,.68-1.58,.23-3.24-.91-4.07-3.2-2.34-4.67-6.11-7.6-8.62,2.76-1.74,.72-3.72,.01-5.3-2.6-5.78-2.39-6.41,3.4-7.98,.91-.25,1.65-1.07,2.55-1.44,3.98-1.68,6.7-5.16,10.25-7.27,5.18-3.08,11.44-.62,17.09-2.03,1.16-.29,1.45,1.1,1.96,1.92,.53,.87,.46,2.52,2.26,1.86-.23,4.13,1.22,8.1,.87,12.29Z"/>
      <path class="cls-10" d="M401.1,186.93c-.31,3.58-2.22,6.5-5.09,8.18-3.4,1.97-3.95,4.48-3.19,7.83-1.8,.66-1.73-.99-2.26-1.86-.51-.82-.8-2.21-1.96-1.92-5.65,1.41-11.91-1.05-17.09,2.03-3.55,2.11-6.27,5.59-10.25,7.27-.9,.37-1.64,1.19-2.55,1.44-5.79,1.57-6,2.2-3.4,7.98,.71,1.58,2.75,3.56-.01,5.3-7.86-3.52-12.11-10.25-15.01-17.8-3.1-8.06-.25-15.08,7.24-19.56,1.42-.84,2.92-1.7,4.49-2.09,8.42-2.09,17.2-2.7,24.9-7.55,2.5-1.58,5.96-.93,8.84,1.3,2.35,1.82,4.8,3.42,8.55,2.42,4.03-1.07,7.17,2.71,6.79,7.03Z"/>
      <path class="cls-13" d="M292.58,603.5c-2.42,.17-4.34-1.25-6.11-2.41-10.25-6.7-21.09-12.47-31.99-17.91-16.33-8.14-32.74-16.25-50.03-22.33-6.24-2.2-12.32-4.85-18.43-7.39-2.9-1.21-5.59-1.85-8.24,.6-.95,.88-2.18,1.78-3.4,2-8.33,1.52-9.36,7.45-10.26,14.59-1.68,13.4-9.33,23.78-19,32.81-1.2,1.11-2.47,1.63-4.05,1.51-.76-.45-.95-1.17-.92-1.99,3.24,.47,3.7-2.84,5.48-4.27,9.2-7.38,13.72-17.63,16.24-28.81,1.65-7.35,.3-8.45-6.49-6.12-19.73,6.76-39.83,9.43-60.52,5.34-2.09-.03-3.68-.71-3.97-3.07,10.12,2.3,20.41,2.21,30.68,1.9,18.55-.57,35.83-5.84,52.05-14.75,1.01-.56,2.29-.99,2.05-2.45-.22-1.39-1.52-1.55-2.63-1.91-11.32-3.69-22.68-7.28-33.98-11-17.62-5.81-35.81-9.31-53.57-14.49-4.1-1.2-8.42-1.65-12.64-2.45,.06-.63,.12-1.27,.18-1.91,9.87,1.11,19.5,3.2,28.98,6.22,4.35,1.39,9,1.84,13.41,3.09,13.68,3.88,27.48,7.46,40.92,12.06,18.03,6.17,36.11,12.28,53.73,19.62,1.81,.76,3.77,1.22,5.52,2.08,9.51,4.71,8.97,4.29,12.99-4.77,4.44-10,3.94-20.92,2.94-31.82-.95-10.33-4.65-19.92-6.65-29.95-.62-3.15-3.17-5.83-2.79-9.36h0c.99-.04,1.98-.07,2.97-.1-1.01,4.91,2.98,8.35,3.77,12.56,2.34,12.42,6.34,24.6,6.25,37.44-.02,2.04,.3,3.53,2.78,1.65,5.29-4,10.8-7.69,15.49-12.45,5.46-5.55,11.11-10.91,15.7-17.25,.82,.42,1,1.15,1.01,1.98-6.87,10.99-15.85,20.11-26.72,26.86-6.41,3.99-9.95,8.75-10.7,15.96-.35,3.37-1.56,6.5-3.61,9.08-3.29,4.12-1.37,6.47,2.53,7.77,5.83,1.95,11.23,4.76,16.64,7.53,14.5,7.41,29.19,14.5,42.7,23.7,.82,.56,1.81,.93,1.69,2.61Z"/>
      <path class="cls-8" d="M1068.02,568.05h0c-.53,.63-1.08,1.21-1.65,1.78-.19,.19-.38,.38-.57,.56-.29,.28-.58,.55-.87,.82-.25,.22-.5,.44-.75,.65-.59,.5-1.19,.98-1.8,1.44-.25,.19-.5,.38-.75,.56-.03,.02-.06,.04-.08,.06-.56,.4-1.14,.8-1.72,1.19-3.18,2.12-6.57,3.95-9.91,5.84-4.46,2.53-9.16,4.63-13.57,7.24-6.65,3.94-10.51,10.39-14.37,16.79-13.51-8.95-23.2-24.04-24.56-42.36,7.65,1.82,15.19,3.84,22.83,5.38,15.06,3.03,30.18,3.16,45.29,.08,.8-.16,1.65-.02,2.48-.03Z"/>
      <path class="cls-12" d="M713.9,228.21c.3,.12,.55,.25,.76,.41-.21-.17-.46-.3-.76-.41Zm-2.69,13.38c-.08,0-.15,.02-.23,.03h0c.08,0,.15-.01,.23-.02,1.24-.18,2.5-.35,3.74-.53-1.24,.18-2.5,.35-3.74,.52Zm-7.25-25.45s.03-.05,.05-.07c0-.02,.01-.04,.01-.06-.02,.01-.03,.03-.04,.04-.01,.03-.02,.06-.02,.09Z"/>
      <path class="cls-2" d="M161.87,569.9c-2.52,11.18-7.04,21.43-16.24,28.81-1.78,1.43-2.24,4.74-5.48,4.27-3.62-3.69-5.6-8.57-10-11.88-5.12-3.86-10.87-6.16-16.38-9.09-6.76-3.61-13.91-6.69-18.91-12.89,20.69,4.09,40.79,1.42,60.52-5.34,6.79-2.33,8.14-1.23,6.49,6.12Z"/>
      <path class="cls-14" d="M500.86,425.92c-2.15,4.32-6.3,6.07-12.12,4.69-7.71-1.84-15.13-4.52-22.38-7.83-3.89-1.77-5.4-3.95-4.84-7.93,2.77-3.07,1.72-7.05,2.41-10.59,.67-3.45,1.4-6.84,3.28-9.79,.71-1.1,1.74-2.79,3.59-1.81,1.39,.74,1.46,2.28,.96,3.54-1.44,3.66,.03,7.55-.68,11.39,1.33-2.87,2.57-5.79,4.01-8.6,.83-1.61,1.87-3.14,3.05-4.5,.79-.91,1.57-2.54,3.15-1.84,1.29,.57,.74,2.07,.75,3.16,.02,5.11,.31,10.22-.25,15.45,1.06-2.85,2.05-5.73,3.2-8.54,.81-1.99,1.63-4.03,2.83-5.8,.96-1.42,2.15-3.38,4.34-2.63,2.52,.86,2.01,3.29,1.7,5.15-.7,4.28-1.71,8.5-2,12.93,1.59-2.84,3.16-5.68,4.75-8.5,.88-1.56,1.59-3.82,3.76-3.35,1.94,.41,2.54,2.62,2.57,4.44,.1,6.61,.9,13.32-2.13,19.6-.17,.36,.03,.9,.05,1.36Z"/>
      <path class="cls-14" d="M630.47,284.1c-1.66,1.56-3.32-.8-4.84-1.87-.76-.54-1.71-.84-2.57-1.24-.15-.43-.3-.85-.45-1.28-.12,.09-.35,.24-.35,.27,.22,.37,.46,.73,.7,1.09,.95,2.23,1.99,4.43,2.8,6.7,.42,1.2,.79,2.78-.42,3.63-1.17,.82-1.94-.77-2.96-1.14-2-.74-2.95-3.17-5.33-3.27-.16-.13-.33-.27-.49-.4,.13,.17,.26,.33,.39,.5,.48,2.09,1.15,4.08,2.34,5.91,.95,1.46,1.38,3.34-.01,4.53-1.51,1.28-3.02,.11-4.36-1.01-1.31-1.1-2.08-3.02-4.13-3.08-.7,.67-.35,1.26,0,1.81,.71,1.08,1.91,2.25,.39,3.39-1.18,.88-2.5,.28-3.62-.57-2.1-1.58-4.28-3.06-6.28-4.76-.8-.67-1.44-1.3-2.54-1.05-.9-1.96-1.76-3.94-2.71-5.87-1.66-3.37-.64-6.39,1.96-8.44,4.56-3.56,9.37-6.79,14.45-9.67,4.47-2.54,7.71-2.09,10.88,1.7,.72,.87,1.78,1.47,2.68,2.19,.31,2.64,2.67,3.99,3.88,6.08,1.16,2.02,2.04,4.48,.58,5.85Z"/>
      <path class="cls-10" d="M439.12,427.14c-16.78-4.08-33.89-4.68-51.04-4.42-27.67,.41-55.04,3.6-82.12,9.34-1.84-1.34-5.83-.57-4.72-4.8,44.23-9.12,88.83-9.81,133.62-5.72,3.31,.3,6.62,.57,9.93,.86,.36,4.26-3.83,3.1-5.67,4.74Z"/>
      <path class="cls-10" d="M794.04,421.03c-4.73-3.56-10.44-3.05-15.81-3.6-29.63-3.03-58.88-1.16-87.5,7.6-5.29,1.62-10.25,3.96-14.57,7.51-.35-.15-.73-.25-1.11-.33-.14-.03-.28-.05-.42-.07-.14-.03-.29-.05-.43-.06-.59-.08-1.2-.12-1.8-.2-.26-.03-.53-.07-.79-.12-.13-.02-.26-.05-.39-.08-.01,0-.03,0-.05-.01-.12-.03-.24-.06-.36-.1-.12-.04-.24-.08-.35-.13-.12-.05-.24-.1-.36-.16-.09-.04-.17-.09-.25-.14-.14-.08-.28-.18-.41-.29-.1-.08-.2-.17-.3-.27-.08-.08-.16-.17-.23-.27-.11-.13-.21-.28-.3-.44-.02-.03-.03-.05-.04-.07-.08-.13-.15-.27-.21-.43-.06-.12-.11-.26-.16-.4-.03-.09-.06-.17-.08-.26-.03-.09-.06-.19-.08-.29,14.61-5.6,29.6-9.83,45.04-12.52,27.45-4.77,54.89-4.74,82.35-.09,1.14,.2,2.31,.21,3.46,.31,.86,4.09-3.29,3.22-4.85,4.91Z"/>
      <path class="cls-8" d="M260.16,254.44c-1.45,12.78-3.5,25.28-8.89,37.04-.65,1.42-.88,3.25-3.47,4.21,2.4-7.03,5.26-13.32,7-20,5.19-19.91,3.95-39.78,.21-59.69-.15-.78-.44-2.02-.94-2.18-6.41-2.1-6.83-8.11-8.54-13.13-2.43-7.17-2.81-14.65-2.43-22.16,.05-1.09-.46-2.68,1.06-2.96,1.2-.22,1.96,1.08,2.6,2.05,5.94,8.84,11.17,18.64,10.63,29.07-.84,16.12,4.59,31.64,2.77,47.75Z"/>
      <path class="cls-8" d="M239.04,288.96c-.34,.28-.69,.56-1.03,.83-1.96-2.57-4.17-5-5.8-7.77-1.39-2.36-2.68-3.55-5.53-2.46-1.33,.51-2.94,.37-4.42,.42-4.48,.15-8.73-.95-13.51,.67-5.26,1.77-10.57-2.05-15.48-4.29-5.4-2.47-10.5-5.66-14.9-9.78-.81-.76-2.18-1.34-1.71-2.72,.4-1.19,1.7-.79,2.62-.79,11.13-.04,21.62,3.05,30.46,9.36,4.14,2.96,7.22,6.19,12.76,5.7,3.94-.34,6.37-.78,3.13-5.2-.52-.72-.41-1.9-.59-2.87l.04-.04c5.83,5.49,9.7,12.35,13.96,18.94Z"/>
      <path class="cls-9" d="M702.07,250.13s-.01,.01-.01,.01h0s.01-.02,.01-.01Z"/>
      <path class="cls-9" d="M702.08,250.11h-.01s0,.01,0,0h.01Z"/>
      <path class="cls-9" d="M707.25,249.82l.07,.15c-.03-.05-.06-.1-.08-.15-.13-.11-.25-.23-.34-.34,.1,.11,.22,.22,.35,.33h0Z"/>
      <path class="cls-8" d="M211.37,253.36c-1.77,2.16-4.71,1.77-7.26,.21-9.08-5.54-16.67-12.54-21.76-21.99-.64-1.18-2.21-2.96,.36-3.4,4.23,1.13,7.67,2.83,10.94,4.78,6.03,3.58,11.32,8.11,16.04,13.28,1.84,2.02,3.62,4.74,1.68,7.12Z"/>
      <path class="cls-8" d="M217.07,358.02h-.01c-7.49-1.38-13.76-4.47-17.89-11.36-2.09-3.49-3.43-7.18-4.67-10.96-.79-2.41,.44-2.53,2.33-1.84,8.15,2.98,14.32,8.3,18.42,15.88,1.33,2.47-.29,5.83,1.82,8.28Z"/>
      <path class="cls-8" d="M234.91,267.48c-3.78,1.23-5.62-2.04-6.53-4.6-1.6-4.47-3.15-9.14-2.34-13.26,0-1.66-.11-2.51,.02-3.31,.34-2.03-1.14-5.15,1.22-5.84,2.65-.77,4.26,2.26,5.45,4.26,2.78,4.69,4.63,9.8,5.82,15.18,.82,3.72-.15,6.43-3.64,7.57Z"/>
      <path class="cls-8" d="M272.6,296.67c-.62,.2-1.28,.29-1.83,.41-3.69-.29-5.12-2.33-4.58-5.72,.78-4.96,13.02-16.94,17.88-17.79,1.34-.23,1.78,.18,1.93,1.41,.65,5.09-8.6,20.12-13.4,21.69Z"/>
      <path class="cls-8" d="M251.82,370.21c-.8,1.81-2.2,2.84-4.3,2.8-2.1-.03-3.71-1.05-4.18-2.92-2.16-8.57-.66-16.74,3.49-24.39,1.47-2.72,2.47-.92,3.21,.79,2.15,4.92,3.26,10.05,2.99,15.73,.26,2.57-.05,5.36-1.21,7.99Z"/>
      <path class="cls-8" d="M289.4,231.27c-1.42,4.96-14.58,15.61-19.6,15.74-2.08,.16-3.7-.72-4.38-2.6-.75-2.07-.95-4.44,.96-6.01,5.97-4.93,12.62-8.53,20.49-9.28,1.27-.12,3.32-.64,2.53,2.15Z"/>
      <path class="cls-12" d="M1030.11,691.1l-.22-.19c-.01-.16,.03-.44-.04-.47-6.44-3.27-2.02-8.27-2-12.56,.11-2.96,.31-5.93,.3-8.89-.01-1.19,.22-3-1.68-2.97-1.86,.04-1.56,1.76-1.68,3.03-1.4,5.01-.82,10.12-.81,15.21,0,1.32,.07,2.65,0,3.97-.03,.67-.33,1.29-1.21,1.23-.75-.05-1.37-.46-1.28-1.2,.52-4.16-2.23-7.59-2.55-11.55,.9,.6,1.8,1.21,3.11,2.08-.6-3.86,.45-7.19,.84-10.59,.23-2.03,1.16-4.1,3.55-4.09,2.36,.01,3.46,2.11,3.59,4.1,.15,2.21,.42,4.45,.27,6.67-.05,.69-.14,1.37-.28,2.06-.05,.23-.11,.45-.17,.68-.12,.46-.28,.91-.46,1.36h0c-.45,1.27-.89,2.51,.67,3.36,5.3,2.89,2.33,5.83,.05,8.76Z"/>
      <path class="cls-10" d="M320.01,289c-5.3-5.24-11.24-9.43-18.52-11.51-4.12-1.18-8-1.29-11.45,1.75h0s-.01,.01-.01,.01c-.05-.21-.09-.42-.13-.62h0c-.06-.31-.11-.6-.13-.88-.07-.62-.06-1.2,.02-1.72-.01-.03,0-.06,0-.08,.02-.13,.05-.26,.07-.39,.03-.14,.07-.28,.11-.41,.1-.33,.23-.63,.4-.91,.03-.04,.05-.08,.07-.12,.07-.12,.14-.24,.23-.35,.05-.07,.11-.13,.16-.2,.15-.19,.32-.37,.5-.53,.06-.05,.12-.11,.18-.16,.08-.07,.17-.14,.26-.2,.08-.06,.17-.13,.27-.19,.2-.14,.42-.27,.64-.37,.09-.05,.18-.1,.27-.14,.09-.05,.18-.09,.27-.13,.19-.08,.38-.16,.58-.23,.2-.08,.41-.15,.62-.21,.12-.03,.24-.07,.37-.11,.38-.11,.78-.2,1.19-.28,8.9,1.38,16.13,5.65,21.72,12.69,1.22,1.54,2.56,3.08,2.3,5.29Z"/>
      <path class="cls-10" d="M781.14,283.14c-.22-3.2-2.63-3.1-4.73-2.85-7.95,.95-15.45,3.28-22.4,7.39-2.6,1.53-3.07,4.11-4.2,6.42-4.72-1.9-2.45-4.33-.17-6.12,8.94-7.04,19.21-10.66,30.58-11.12,.65-.03,1.3-.11,1.95-.16,4.02,2.84,1.55,4.65-1.03,6.44Z"/>
      <path class="cls-12" d="M220.09,669.93c-3.61-1.22-5.25,.7-6.11,3.84-1.8,6.56-.94,13.24-.93,19.88,0,1.04,1.08,2.52-.56,3.01-1.63,.49-2.07-.96-2.75-2.18-2.29-4.11-2.96-9.26-7.51-11.92-.51-.29-1.24-.23-1.86-.33-.24-.22-.46-.45-.68-.68,2.11-3.14,3.92-1.44,5.39,.52,1.83,2.42,3.37,5.07,5.63,8.54,.66-6.8-.39-12.79,1.66-18.42h0c1.27-1.46,1.77-3.62,3.91-4.27,1.93-.59,3.61-.68,3.81,2.01Z"/>
      <path class="cls-12" d="M633.73,680.99c-1.08-2.09,1.68-4.03-.35-5.75-.33,.09-.66,.12-.92,.26-1.74,.98-1.5,4.93-3.55,4.05-2.5-1.07,.25-3.65,.42-5.56,.38-4.26,1.96-8.41,1.64-12.77-.09-1.26-.34-2.38-.88-3.18-.07-.11-.14-.21-.22-.29-.2-.24-.43-.44-.7-.59-.06-.04-.13-.08-.2-.11-.08-.04-.16-.07-.25-.1-.11-.04-.22-.08-.34-.1-.08-.03-.16-.04-.24-.05s-.16-.02-.24-.03c-.54-.06-1.17,0-1.91,.19h-.02v-.02c.02-.78,.21-1.38,.52-1.81,.04-.06,.09-.12,.14-.17,.08-.09,.17-.17,.26-.24,.09-.07,.19-.13,.29-.18,.12-.06,.24-.11,.36-.15,.11-.02,.23-.05,.34-.06,.12-.02,.25-.03,.38-.03,.3,0,.63,.05,.97,.13,2.21,.54,3.12,2.22,2.93,4.48,1.42,2.96-.03,5.86-.11,8.8-.06,2.24-.97,4.21,2.55,5.81,3.29,1.49,1.22,4.93-.87,7.47Z"/>
      <path class="cls-12" d="M453.43,660.63c-3.67-1.08-2.04-3.71-1.9-6.05,.12-1.96,1.08-4.78-1.95-5.27-2.53-.41-2.75,2.21-3.58,3.95-.74,1.53,.27,3.8-1.98,4.66h0c.55,2.22,.38,4.74,2.92,6.59,0-2.16-.11-3.81,.04-5.45,.09-1.1-.61-3.15,1.56-2.71,1.39,.28,1.79,1.92,1.12,3.28-.81,1.61-.89,3.22-.92,4.79,1.9,.6,1.61-3.11,4.19-1.3,1.02,.71,.79-1.48,.5-2.49Zm-4.91-5.95c-.4-.01-.8-.21-1.21-.34,.16-.41,.31-.82,.94-2.47,.4,1.16,.63,1.59,.67,2.04,.03,.25-.26,.77-.4,.77Z"/>
      <path class="cls-12" d="M226.84,694.95c-6.16-3.07-5.98,4.04-9.81,6,1.75-10.62,4.27-20.69,3.07-31.02,1.2-.53,1.21,.69,1.73,1.17,.56,4.82,.61,9.64-.27,14.42-.7,3.76-1.49,7.35,4.11,7.8,1.25,.1,1.27,1.29,1.17,1.63Z"/>
      <path class="cls-12" d="M625.99,656.96c-1,7.48-1.54,14.99-1.4,22.79-1.83-4.06-3.66-8.11-5.57-12.37,2.51-.23,1.94,2.72,3.83,2.85,.44-3.74,.87-7.47,1.31-11.19,.08-.08,.15-.18,.21-.28,.12-.2,.22-.42,.32-.65,.09-.2,.19-.4,.31-.57,.04-.06,.08-.11,.13-.16,.06-.07,.12-.14,.2-.18,.06-.05,.12-.09,.19-.12,.06-.04,.13-.07,.21-.08,.05-.02,.1-.03,.16-.04,.02-.01,.05-.01,.08-.02h.02v.02Z"/>
      <path class="cls-2" d="M707.25,249.82l.07,.15c-.03-.05-.06-.1-.08-.15h.01Z"/>
      <path class="cls-14" d="M717.98,260.03c-3.09,7.58-9.34,12.06-16.28,15.3-6.32,2.94-9.89-.6-9.51-8.64,3.55-2.22,5.48-5.38,5.61-9.6-.1-.63-.2-1.26-.29-1.89,2.29-.77,4.5-2.04,6.51-3.73,.11-.1,.23-.19,.34-.3,.78-.68,1.54-1.42,2.24-2.23,.02,.07,.04,.13,.08,.2,.06,.11,.13,.22,.22,.33h0c.09,.12,.21,.24,.34,.35,.02,.05,.05,.1,.08,.15,.02,.06,.05,.12,.08,.18,.05,.11,.1,.21,.17,.31,.12,.19,1.3,2.15,1.63,3.78,.38,1.87,1.8,3.15,3.48,3.72,1.81,.61,3.82,.62,5.3,2.07Z"/>
      <path class="cls-12" d="M1020.71,693.19c-4.39-4.58-7.29-9.74-6.87-16.27,.26-.53,.52-1.05,.78-1.58,0,6.62,3.46,12.09,6.09,17.85Z"/>
      <path class="cls-10" d="M376.69,236.6c-.08,.38-.15,.76-.23,1.14-.18,.07-.35,.13-.53,.19h-.01c-1.12,.33-2.12,.27-3.05-.02-.37-.12-.73-.27-1.08-.44-.35-.18-.7-.39-1.03-.61-.23-.15-.45-.3-.67-.46-.45-.32-.89-.66-1.33-.99,.1-.14,.21-.28,.32-.41,2.51,.67,5.5-.94,7.61,1.6Z"/>
      <path class="cls-8" d="M224.06,365.02h0c-3.04-.94-5.14-2.84-6.03-5.97,.01,0,.05-.05,.05-.05,3.04,.97,5.14,2.88,5.98,6.02Z"/>
      <path class="cls-8" d="M216.08,259.04l-.04,.02c-2.01-.18-3.19-1.27-3.73-3.71,2.51,.28,3.43,1.66,3.77,3.69Z"/>
      <path class="cls-8" d="M224.09,269.02l-.05,.05c-1.88-.13-2.79-1.22-2.99-3.02l.03-.02c1.94,.06,2.84,1.15,3.01,2.99Z"/>
      <path class="cls-8" d="M241.11,294l-.08,.08c-.86-.5-1.73-1.01-1.57-2.2,.02-.16,.52-.45,.68-.39,1.19,.48,.87,1.58,.97,2.51Z"/>
      <path class="cls-8" d="M220.08,264.03l-.04,.04c-1.31-.03-1.94-.73-2.01-2l.06-.06c1.31,.03,1.93,.75,1.99,2.02Z"/>
      <path class="cls-14" d="M462.05,409.06c-.17,.96-.33,1.92-.49,2.87-.49-1.07-.53-2.06,.49-2.87Z"/>
      <path class="cls-8" d="M217.08,261.03l-.03,.03c-.83-.42-1.02-1.15-1.01-2l.04-.02c.83,.41,1.02,1.15,1,1.99Z"/>
      <path class="cls-8" d="M221.08,266.03l-.03,.02c-.82-.41-1.02-1.14-1.01-1.98l.04-.04c.83,.42,1.04,1.14,1,2Z"/>
      <path class="cls-8" d="M218.09,262.01l-.06,.06c-.33-.34-.65-.67-.98-1.01l.03-.03c.34,.33,.67,.65,1.01,.98Z"/>
      <path class="cls-8" d="M218.08,359s-.04,.05-.05,.05c-.32-.34-.65-.68-.97-1.02h.01c.34,.32,.67,.65,1.01,.97Z"/>
      <path class="cls-8" d="M241.53,294.5c-.17-.14-.34-.28-.5-.42l.08-.08c.14,.17,.28,.33,.42,.5Z"/>
      <path class="cls-8" d="M225.08,270.02l-.04,.04c-.34-.33-.67-.66-1-.99l.05-.05c.33,.34,.66,.67,.99,1Z"/>
      <path class="cls-7" d="M747.69,686.22c7.17-4.25,12.76-9.81,13-18.65,.15-5.59-.9-11.21-1.17-16.83-.79-16.7-2.96-33.32-3.13-50.05,1.18-7.83-.35-15.98,2.62-23.59,.72-1.84-1.18-5.32,3.03-5.12,4.09,8.99,6.98,18.36,8.8,28.06-2.56,2.18-3.2,5.29-3.83,8.31-3.98,19.28,1.85,36.13,12.96,51.63-.77,1.73-1.45,3.18-4,2.26-1.62-.58-3.59-.27-5.41-.26-7.72,.05-8.7,.84-8.51,8.41,.11,4.11-2.69,7.8-1.28,12.07,.34,1.04-1.02,1.29-2.13,1.28-4.75-.07-8.22,2.15-10.57,6.22-.13-1.24-.26-2.49-.39-3.73Z"/>
      <path class="cls-2" d="M337.17,661.97c3.04-15.75,6.09-31.5,9.13-47.25,3.07-15.93,6.12-31.86,9.17-47.79,2.36-.45,2.37,1.8,3.36,2.92,.47,16.09-1.52,32.05-2.62,48.05-.26,3.79-.97,7.66-.93,11.35,.12,11.32-2.15,22.42-2.3,33.69-2.38,.38-4.44,1.69-6.77,2.35-4.23,1.19-6.89,.2-9.02-3.31Z"/>
      <path class="cls-10" d="M364.51,681.53c6.77-.08,13.55-.16,20.32-.23,.95,5.17,4.2,8.02,9.15,9.32,4.81,1.27,9.69,2.35,14.18,4.59,1.47,.73,3.15,1.6,2.84,3.63-.27,1.8-1.69,2.7-3.37,3.29-2.73,.96-5.55,.93-8.36,.99-9.12,.19-18.21-.92-27.36-.09-5.55,.51-7.68-1.89-8.18-7.61-.4-4.66,.47-9.26,.79-13.89Z"/>
      <path class="cls-10" d="M301.45,681.49c6.75-.02,13.5-.05,20.26-.07,.95,4.94,4.03,7.7,8.8,9.04,4.78,1.35,9.7,2.3,14.18,4.56,1.59,.8,3.58,1.6,3.2,3.89-.34,2.02-2.06,2.8-3.9,3.37-2.59,.81-5.24,.76-7.89,.82-9.11,.2-18.2-.91-27.35-.08-5.4,.49-7.5-1.77-8.14-7.17-.57-4.84,.53-9.58,.85-14.37Z"/>
      <path class="cls-8" d="M779.99,659.97c-11.11-15.51-16.95-32.36-12.96-51.63,.62-3.02,1.27-6.13,3.83-8.31,4.25,8.13,5.9,17.16,8.8,25.76,3.82,11.31,7.2,22.77,10.69,34.19,.48,1.56,.52,3.26,.76,4.89-1.31-1.85-2.64-3.57-5.37-2.93-2.28,.53-4.02-.77-5.75-1.97Z"/>
      <path class="cls-10" d="M747.69,686.22c.13,1.24,.26,2.49,.39,3.73,0,1.67,0,3.35,0,5.02-.15,1.02-.29,2.04-.44,3.06-1.42,3.45-4.03,5.51-7.73,5.07-10.49-1.24-20.96,.43-31.43-.07-3.9-.19-9.4,.38-10-4.36-.59-4.62,5.1-4.75,8.46-6.04,3.56-1.37,7.33-2.18,10.97-3.35,3.15-1.01,5.73-2.69,6.42-6.27,7.44,3.64,15.43,3.19,23.36,3.19Z"/>
      <path class="cls-10" d="M802.4,686.91c.49-.06,1.12-.35,1.44-.15,7.52,4.85,15.89,4.52,24.29,4.11-.04,1.67,.03,3.34-.13,4.99-.48,5-2.81,7.68-7.72,7.19-10.84-1.09-21.64,.58-32.44-.04-3.61-.21-8.49,.09-9.13-4.25-.64-4.33,4.42-4.52,7.46-5.81,5.31-2.27,11.52-2.14,16.23-6.03Z"/>
      <path class="cls-12" d="M860.28,664.63c.24-2.96,.49-5.93,.7-8.89,.13-1.86,.2-3.83,2.29-4.59,1.98-.72,2.92,1.06,4.09,2.13,.91,.83,1.06,2.82,2.8,2.3,1.7-.51,.88-2.25,1.12-3.47,.58-2.89,1.19-5.78,1.75-8.68,.32-1.66,.93-2.88,2.95-2.44-3.93,10.05-1.64,20.57-1.68,31.8-3.42-2.76-2.8-6.07-4.03-8.58-1.23-2.53-2.03-5.27-3.32-7.76-.6-1.14-.93-3.41-2.85-2.78-1.59,.52-1.51,2.6-1.28,3.98,.48,2.9-.44,5.1-2.53,6.97Z"/>
      <path class="cls-12" d="M876.01,640.98c-.19-3.79,1.91-2.28,3.25-1.2,2.23,1.8,2.76,4.64,2.49,7.19-.5,4.65,.13,9.4-1.25,13.96-.42,1.39-.23,2.49,1.49,2.04,2.88-.75,2.87,1.29,3.25,3.04-.46,4.18-1.81,7.99-4.89,11.94-.27-4.81,4.6-8.02,2.19-12.59-2.61,1.43-2.74,4.5-5.49,7.15,.87-7.02,1.53-13.04,2.41-19.03,.44-2.99,.62-5.95,.17-8.9-.3-1.93-.76-4.09-3.63-3.61Z"/>
      <path class="cls-1" d="M975.53,707.22c-3.32-2.01-1.52-4.42-1.64-6.81-.12-2.44,1.52-6.22-1.74-6.95-3.98-.87-2.92,3.45-3.68,5.63-.6,1.71-.9,2.74-2.54,.92,0,.38,0,.76,.01,1.15,.7,4.58,1.13,9.41,7.76,8.77,.01,0,.08,.6,.12,.92l.31,.27c.6-1.32,3.35-2.72,1.4-3.9Zm-4.57-11.76c1.9,4.15,.07,7.44,.99,10.83-2.35-1.64-2.6-4.12-.99-10.83Z"/>
      <path class="cls-12" d="M616.81,678.17c-2.57-2.81-4.18-6.07-3.71-9.92,.27-2.21,.8-4.81,4.24-3.68-.15,.19-.3,.38-.46,.56-2.75,2.45-1.89,5.46-1.17,8.36,.35,1.42,1.08,2.75,1.64,4.12-.18,.19-.36,.37-.54,.55Z"/>
      <path class="cls-12" d="M200.37,682.23c-3,5.7,.89,10.36,2.81,15.78-5.52-4.34-6.87-11.59-3.49-16.46,.22,.23,.45,.46,.68,.68Z"/>
      <path class="cls-11" d="M1024.8,669.05c.11-1.27-.18-2.99,1.67-3.03,1.91-.04,1.68,1.77,1.68,2.97,0,2.96-.19,5.92-.3,8.88-1.57-1.51-.67-3.45-.88-5.2-.18-1.56,.44-3.55-2.18-3.63Z"/>
      <path class="cls-12" d="M518.02,702.96c3.47-2.29,3.61-2.23,5.96,2.95l.16,.16c-.06,1.01-.29,2.17-1.43,2.15-1.21-.02-.63-1.25-.62-1.92,.05-2.89-1.58-3.62-4.08-3.36h0Z"/>
      <path class="cls-12" d="M518.02,702.96c-.16,2.4-.35,4.79,0,7.17-1.07-2.34-3.49-4.61,0-7.17h0Z"/>
      <path class="cls-12" d="M619.14,679.82c1.93,.52,3.09,1.55,2.5,3.82-1.89-.35-2.42-1.84-2.97-3.32,.16-.17,.32-.33,.47-.5Z"/>
      <path class="cls-12" d="M963.95,700.94c.2,2.08,.39,4.17,.66,6.93-1.94-2.62-2.33-4.68-.63-6.9,0,0-.03-.03-.03-.03Z"/>
      <path class="cls-12" d="M1030.11,691.1c-.17,.87,.11,1.95-1.05,2.35-.16,.06-.63-.24-.64-.39-.07-1.07,.6-1.69,1.46-2.15,0,0,.22,.19,.22,.19Z"/>
      <path class="cls-12" d="M203.76,700.53c-.18-.39-.38-.75-.5-1.14-.01-.04,.57-.37,.63-.31,.29,.29,.49,.67,.73,1.01-.24,.12-.49,.25-.86,.44Z"/>
      <path class="cls-12" d="M965.93,700c0,.38,0,.77,.01,1.15-.66-.07-1.33-.14-1.99-.21,0,0,.03,.03,.03,.03,.11-1.41,.47-2.31,1.95-.97Z"/>
      <path class="cls-12" d="M631.91,682.11c.35,.18,.59,.3,.83,.42-.26,.35-.48,.74-.8,1.03-.07,.06-.46-.22-.7-.34,.22-.37,.44-.75,.66-1.12Z"/>
      <path class="cls-7" d="M747.64,698.04c.15-1.02,.29-2.04,.44-3.06,1.28,1.22,1.12,2.24-.44,3.06Z"/>
      <path class="cls-12" d="M526.98,703.92c.43-.77,1.1-1.04,1.93-.82,.16,.04,.26,.36,.38,.56-.75,.11-1.5,.22-2.25,.33,0,0-.07-.07-.07-.07Z"/>
      <path class="cls-12" d="M617.33,664.57c.46,.32,1.54,.41,1.03,1.15-.44,.63-1.07-.12-1.49-.58,.15-.18,.31-.37,.46-.56Z"/>
      <path class="cls-12" d="M965.96,709.96c.87,.4,1.03,1.15,1,2-.84-.42-1.05-1.14-1-2h0Z"/>
      <path class="cls-1" d="M974.13,711.11c-.23,.41-.06,1.44-.79,1.06-.59-.32,.03-.96,.48-1.32,0,0,.31,.27,.31,.27Z"/>
      <path class="cls-8" d="M791.95,667.01c.16,.26,.22,.54,.2,.84-.19-.18-.37-.36-.56-.54l.36-.3Z"/>
      <path class="cls-12" d="M527.05,703.99c-.17,.22-.33,.43-.5,.65-.58-.67,.08-.6,.43-.71,0,0,.07,.07,.07,.07Z"/>
      <path class="cls-12" d="M523.99,705.91c.21-.13,.42-.26,.63-.4-.16,.18-.31,.37-.47,.56,0,0-.16-.16-.16-.16Z"/>
      <path class="cls-12" d="M617.35,677.61c.29,.38,.59,.76,.88,1.14-.18,.18-.36,.35-.54,.53-.29-.37-.58-.74-.88-1.12,.18-.18,.36-.37,.54-.55Z"/>
      <path class="cls-12" d="M618.23,678.76c.3,.36,.6,.71,.91,1.07-.16,.17-.31,.33-.47,.5-.33-.35-.65-.69-.98-1.04,.18-.17,.36-.35,.54-.53Z"/>
      <path class="cls-12" d="M967.4,712.07l.07,.36c-.11-.02-.27,0-.33-.06-.09-.11-.12-.28-.18-.42l.44,.12Z"/>
      <path class="cls-12" d="M965.97,709.95c-.16-.16-.33-.33-.49-.49,.11,.02,.26,.01,.31,.08,.09,.12,.12,.28,.18,.42h0Z"/>
      <path class="cls-8" d="M882.98,512c9.39,12.43,20.44,22.96,34.38,30.22,2.92,1.52,4.42,3.66,5.1,7.21,1.14,5.96,2.95,11.9,6.5,17.04,1.58,2.28,1.25,3.85-1.27,5.19-13.53,7.21-27.15,14.26-40.48,21.83-8.62,4.9-16.71,10.72-25.18,15.89-10.17,6.2-18.9,14.38-29.01,20.64-2.02-10.68-4.11-21.34-6.05-32.03-1-5.51-2.54-10.97-2.22-16.67-.29-.44-.58-.88-.87-1.31-.66-1.28-.99-2.62-.85-4.07,1.01-.71,.98-1.34-.14-1.89,0,0,0-.02,0-.02,.08-1.09,.33-2.24-.84-2.98-.09-1.6-.17-3.2-.26-4.8-.26-.41-.52-.81-.78-1.21-.06-.67-.12-1.34-.17-2.01,6.32-2.44,12.99-3.54,19.55-5.07,3.12-.73,6.83-.29,8.59-3.99,1.11-.02,2.28,.17,3.01-1,1.57,.16,2.98-.28,4.21-1.22,12.03-9.15,19.31-21.65,24.69-35.42,.6-1.53,.68-3.23,2.1-4.34Z"/>
      <path class="cls-11" d="M762.05,571.97c-4.2-.2-2.31,3.28-3.03,5.12-2.97,7.62-1.44,15.76-2.62,23.59-2.65-20.52-3.06-41.21-4.49-61.88,3.9,10.91,8.09,21.7,10.14,33.17Z"/>
      <path class="cls-2" d="M822.06,571.05c1.16,.74,.91,1.89,.84,2.98-1.09-.77-.95-1.88-.84-2.98Z"/>
      <path class="cls-2" d="M822.89,574.06c1.12,.55,1.15,1.18,.14,1.89-.05-.63-.09-1.26-.14-1.89Z"/>
      <path class="cls-2" d="M823.88,580.01c.29,.44,.58,.87,.87,1.31-.29-.44-.58-.88-.87-1.31Z"/>
      <path class="cls-2" d="M821.01,565.04c.26,.4,.52,.81,.78,1.21-.26-.4-.52-.81-.78-1.21Z"/>
      <path class="cls-11" d="M358.83,569.85c-.99-1.13-1-3.38-3.36-2.92,1.94-11.54,3.87-23.07,5.8-34.61,.33,12.61-.26,25.13-2.44,37.54Z"/>
      <path class="cls-1" d="M295.97,577.95c-2.26-2.71,.89-5.29,.19-7.96,1.32,2.69,1.53,5.35-.19,7.96Z"/>
      <path class="cls-1" d="M297.02,564.98c-1.21-2.34,.57-4.64,.08-6.97,1.45,2.34,1.53,4.66-.08,6.97Z"/>
      <path class="cls-8" d="M930.02,486.04c-.63,6.42-3.12,12.4-4.64,18.6-2.54,10.34-4.06,20.72-4.35,31.3-.11,3.89-.77,4.72-4.51,2.48-11.2-6.73-20.95-15-28.93-25.34-.99-1.28-1.75-2.73-2.62-4.1,.82-7.53,5.39-13.25,10.61-17.77,10.11-8.75,22.11-9.01,34.44-5.18Z"/>
      <path class="cls-13" d="M851.99,552.98c-.72,1.17-1.9,.98-3.01,1,3.36-8.48,8.42-16.08,12.77-24.02,11.15-20.33,24.38-39.35,38-58.08,8.86-12.19,18.56-23.74,28.13-35.39,11.67-14.21,23.88-27.96,36.73-41.06,6.69-6.81,12.36-14.8,20.55-20.11,.97-.63,1.96-1.85,3.01-.81,1.24,1.24-.29,2.07-1.08,2.75-15.37,13.19-28.19,28.87-42.08,43.49-11.62,12.22-21.99,25.62-32.51,38.85-11.84,14.9-22.34,30.69-32.98,46.41-10.2,15.07-18.48,31.24-27.53,46.97Z"/>
      <path class="cls-11" d="M894,418.01v.03c-.02,.65-.05,1.31-.07,1.96-.99-.69-.93-1.35,.05-1.98,.01,0,.01-.01,.02-.01Z"/>
      <path class="cls-5" d="M411.11,327.58c-.08-12.13,9-24.15,19.5-27.21,1.33-.39,2.79-.78,3.53,.72,.91,1.84-.93,2.24-2,2.75-4.85,2.32-9.34,5.14-12.69,9.43-4.26,5.46-5.49,11.56-3.75,18.32,.37,1.43,1.25,3.66-1.18,4.1-1.9,.35-2.22-1.59-2.5-3.08-.41-2.11-.77-4.23-.91-5.03Z"/>
      <path class="cls-2" d="M269.04,508.01c-4.59,6.34-10.23,11.7-15.7,17.24-4.69,4.76-10.2,8.45-15.49,12.45-2.49,1.88-2.8,.39-2.78-1.65,.09-12.84-3.91-25.01-6.25-37.44-.79-4.2-4.78-7.65-3.78-12.56,4.46-2.5,9.47-1.74,14.24-2.38,.86,.05,1.72,.1,2.58,.16,12.75,.91,25.43,12.19,27.17,24.18Z"/>
      <path class="cls-12" d="M241.87,483.83c-.86-.05-1.72-.1-2.58-.16-2.52-5.17-7.64-7.78-11.64-11.39-14.74-13.32-30.21-25.78-46.28-37.48-6.43-4.68-13.11-9.01-19.67-13.52-.97-.67-2.97-1.1-1.79-2.73,.86-1.19,2.05,.15,2.98,.78,9.87,6.69,19.46,13.75,29.03,20.87,13.7,10.2,26.74,21.17,39.68,32.26,3.86,3.31,8.12,6.43,10.26,11.37Z"/>
      <path class="cls-3" d="M666.01,371.02l1.36-5.11c.31,1.94,1.92,4.29-1.37,5.1h.01Z"/>
      <path class="cls-3" d="M656.01,364.02c-1.25-.05-1.99-.65-2.04-1.96l.06-.08c1.29,.06,1.96,.73,1.97,2.04h0Z"/>
      <path class="cls-3" d="M656,364.03c.53,.23,1.07,.46,1.6,.69-.12,.2-.25,.4-.37,.6-.41-.43-.82-.87-1.23-1.3,0,0,0,0,0,0Z"/>
      <path class="cls-3" d="M666,371.02c-.12,.44-.24,.88-.36,1.32-.94-.74-.04-.95,.37-1.31,0,0-.01,0-.01,0Z"/>
      <path class="cls-3" d="M666.45,363.37c-.07-.11-.14-.21-.21-.32,.16-.08,.31-.17,.47-.25,.02,.13,.08,.28,.04,.39-.03,.09-.2,.13-.3,.19Z"/>
      <path class="cls-3" d="M653.97,362.06c-.82-.02-1.55-.21-2.01-.97,0,0,.13-.16,.14-.16,.81,.06,1.53,.26,1.94,1.05,0,0-.06,.07-.06,.07Z"/>
      <path class="cls-3" d="M652.02,371.01c.13,.14,.26,.28,.4,.43-.14-.13-.28-.27-.42-.4l.03-.02Z"/>
      <path class="cls-3" d="M651.99,371.03c-.14-.14-.28-.29-.42-.43,.15,.13,.3,.27,.45,.4,0,0-.03,.02-.03,.02Z"/>
      <path class="cls-10" d="M368.77,235.41c-.42-.28-1.46-.25-1.05-.96,.3-.52,1.12-.23,1.36,.54-.11,.13-.22,.27-.32,.42Z"/>
      <path class="cls-14" d="M702.07,250.13s-.01,.01-.01,.01h0s.01-.02,.01-.01Z"/>
      <path class="cls-14" d="M702.08,250.11h-.01s0,.01,0,0h.01Z"/>
      <path class="cls-14" d="M712.14,235.52h-.01s0,0,0,0h.01Z"/>
      <path class="cls-11" d="M1205.88,184.59c0-5.62-.18-11.33-1.12-16.85-4.66-27.2-13.47-52.72-29.3-75.74-14.51-21.11-33.25-37.25-54.78-50.58-13.91-8.61-28.98-14.48-44.37-19.76-17.33-5.95-35.27-9.31-53.2-12.28-18.08-3-36.43-4.51-54.71-6.2-21.65-2-43.39-2.91-65.12-2.94-28.12-.04-56.24-.81-84.37,.66-17.56,.91-35.17,1.03-52.75,2.08-16.38,.97-32.75,2.02-49.13,2.98-18.19,1.08-36.36,2.35-54.51,3.99-15.99,1.45-32.01,2.52-48.01,3.87-16,1.36-31.98,2.96-47.99,4.16-17.01,1.28-34.01,2.72-51.01,3.93-18.54,1.32-37.16,2.04-55.75,2.03-28.28-.02-56.56,.67-84.87-.62-20.73-.94-41.5-1.15-62.25-2.02-20.89-.87-41.76-1.86-62.63-3.14-15.07-.92-30.19-1.03-45.23-2.24-7.65-.61-15.35,.01-22.87-1.04-11.84-1.66-23.62-1.05-35.25,.46-25.74,3.33-49.31,12.55-70.6,27.67-16.86,11.96-30.99,26.56-42.5,43.54-10.74,15.83-18.74,33.13-24.39,51.49C3.44,156.69,.12,175.69,.11,195.2c-.06,70.98-.02,141.96-.03,212.95-.01,66.31,.14,132.63-.08,198.94-.08,25.34,1.69,50.28,8.78,74.8,6.16,21.26,15.67,40.55,31.24,56.3,17.23,17.45,38.54,27.75,62.19,33.86,21.25,5.49,42.95,5.94,64.61,6.73,12.76,.47,25.57-.48,38.37-.84,16.78-.46,33.57,.62,50.38-.83,12.89-1.11,25.9,.24,38.87-1.01,10.9-1.05,21.9-.42,32.88-.89,22.39-.97,44.83-1.04,67.24-2.21,13.28-.69,26.56,.25,39.89-.85,14.72-1.21,29.59-.88,44.35-.91,56.55-.12,113.12-1.99,169.62,2.55,17,1.36,34.09,1.88,51.13,3.01,18.02,1.19,36.08,2.06,54.13,2.99,13.08,.68,26.17,1.31,39.25,2.02,20.06,1.09,40.16,1.45,60.24,2.15,7.46,.26,14.98,.68,22.38,.7,31.62,.1,63.24,1.02,94.87-.5,17.4-.83,34.76-1.85,52.13-3.09,11.08-.79,22.16-1.76,33.08-3.43,23.62-3.62,46.11-10.93,66.72-23.4,15.49-9.37,29.55-20.64,40.96-34.59,14.2-17.39,25.34-36.68,32.51-58.19,5.75-17.26,9.95-34.87,9.98-53,.23-141.29,.14-282.58,.08-423.87Zm-326.37-21.11c8.04-1.79,13.82-4.9,17.53-13.33,3.54-8.04,12.42-10.4,20.96-10.99,3.93-.26,7.94-.58,11.89,.67,5.85,1.84,9.53-1.77,12.51-5.92,5.21-7.29,11.71-13.4,20.43-14.97,11.93-2.15,24.06-2.35,34.51,5.96,4.71,3.73,9.06,7.6,11.7,13.2,2.08,4.41,6.53,5.73,10.77,7.08,11.51,3.67,23.71,4.75,34.94,9.62,8.18,3.56,10.84,10.68,10.12,18.03-.49,5.01-5.1,5.11-8.63,6.08-1.85,.51-3.97,.09-7.15,.09-18.02-2.42-36.52,3.2-55.37,4.81-14.25,1.22-28.4,.19-42.33-3.89-11.36-3.33-22.62-4.59-34.45,.31-11.26,4.67-23.51,5.72-35.47,1.43-3.84-1.37-6.94-4.28-8.31-8.11-1.6-4.51,1.04-8.88,6.35-10.07Zm-246.37-89.88c4.55-.7,7.35-2.86,8.95-7.38,1.56-4.44,6.04-4.69,10-5.09,2.48-.25,4.99-.07,7.49-.05,2.84,.03,5.08-.82,6.7-3.43,6.62-10.66,26.14-11.42,32.62-1.1,5.07,8.05,13.41,9.02,21.53,10.47,3.76,.67,6.99,2.07,9.42,5,1.52,1.82,2.63,3.82,1.49,6.35-1.14,2.54-2.88,3.9-5.82,3.75-2.98-.16-5.99-.04-10.19-.04-6.06-1.43-13.06,.96-19.96,2.26-9.45,1.77-18.06-.88-26.93-2.61-6.34-1.23-12.57-1.14-18.54,1.44-6.1,2.63-11.91,2.18-17.65-.96-2.05-1.13-3.37-2.54-3.24-5.1,.13-2.76,2.28-3.23,4.13-3.51Zm-237.74,46.98c1.19-4.23,4.76-5.04,8.57-5.53,6.45-.84,11.17-3.53,13.52-10.35,1.91-5.54,6.72-8.84,12.38-10.74,6.78-2.29,13.77-2.14,20.71-1.8,6.46,.31,10.88-2.14,14.71-7.36,10.44-14.24,24.99-16.86,41.28-13.35,9.79,2.11,17.12,7.98,22.22,16.36,3.64,5.99,8.83,8.93,15.38,10.52,9.97,2.42,19.85,5.15,29.73,7.9,6.05,1.68,12.7,9.79,13.05,15.56,.36,5.92-5.59,10.3-12.53,10.28-22.34-3.12-42.49,3.13-62.99,4.85-8.11,.69-16.27,.33-24.29-1.32-10.03-2.07-20.02-4.31-30.06-6.31-4.5-.9-9.26-.22-13.15,1.6-8.46,3.94-17.44,5.32-26.39,5.91-6.3,.41-12.81-1.52-18.31-5.25-3.89-2.63-5.09-6.52-3.83-10.97Zm-129.02,117.82c5.97-4.93,12.62-8.53,20.49-9.28,1.27-.12,3.32-.64,2.53,2.15-1.42,4.96-14.58,15.61-19.6,15.74-2.08,.16-3.7-.72-4.38-2.6-.75-2.07-.95-4.44,.96-6.01Zm6.22,58.27c-.62,.2-1.28,.29-1.83,.41-3.69-.29-5.12-2.33-4.58-5.72,.78-4.96,13.02-16.94,17.88-17.79,1.34-.23,1.78,.18,1.93,1.41,.65,5.09-8.6,20.12-13.4,21.69Zm-28.44-121.1c1.2-.22,1.96,1.08,2.6,2.05,5.94,8.84,11.17,18.64,10.63,29.07-.84,16.12,4.59,31.64,2.77,47.75-1.45,12.78-3.5,25.28-8.89,37.04-.65,1.42-.88,3.25-3.47,4.21,2.4-7.03,5.26-13.32,7-20,5.19-19.91,3.95-39.78,.21-59.69-.15-.78-.44-2.02-.94-2.18-6.41-2.1-6.83-8.11-8.54-13.13-2.43-7.17-2.81-14.65-2.43-22.16,.05-1.09-.46-2.68,1.06-2.96Zm-4.7,116.31c.02-.16,.52-.45,.68-.39,1.19,.48,.87,1.58,.97,2.51,.14,.17,.28,.33,.42,.5-.17-.14-.34-.28-.5-.42-.86-.5-1.73-1.01-1.57-2.2Zm-13.4-45.57c.34-2.03-1.14-5.15,1.22-5.84,2.65-.77,4.26,2.26,5.45,4.26,2.78,4.69,4.63,9.8,5.82,15.18,.82,3.72-.15,6.43-3.64,7.57-3.78,1.23-5.62-2.04-6.53-4.6-1.6-4.47-3.15-9.14-2.34-13.26,0-1.66-.11-2.51,.02-3.31Zm-43.35-18.13c4.23,1.13,7.67,2.83,10.94,4.78,6.03,3.58,11.32,8.11,16.04,13.28,1.84,2.02,3.62,4.74,1.68,7.12-1.77,2.16-4.71,1.77-7.26,.21-9.08-5.54-16.67-12.54-21.76-21.99-.64-1.18-2.21-2.96,.36-3.4Zm-6.05,35.68c.4-1.19,1.7-.79,2.62-.79,11.13-.04,21.62,3.05,30.46,9.36,4.14,2.96,7.22,6.19,12.76,5.7,3.94-.34,6.37-.78,3.13-5.2-.52-.72-.41-1.9-.59-2.87-.34-.33-.67-.66-1-.99-1.88-.13-2.79-1.22-2.99-3.02-.82-.41-1.02-1.14-1.01-1.98-1.31-.03-1.94-.73-2.01-2-.33-.34-.65-.67-.98-1.01-.83-.42-1.02-1.15-1.01-2-2.01-.18-3.19-1.27-3.73-3.71,2.51,.28,3.43,1.66,3.77,3.69,.83,.41,1.02,1.15,1,1.99,.34,.33,.67,.65,1.01,.98,1.31,.03,1.93,.75,1.99,2.02,.83,.42,1.04,1.14,1,2,1.94,.06,2.84,1.15,3.01,2.99,.33,.34,.66,.67,.99,1,5.83,5.49,9.7,12.35,13.96,18.94-.34,.28-.69,.56-1.03,.83-1.96-2.57-4.17-5-5.8-7.77-1.39-2.36-2.68-3.55-5.53-2.46-1.33,.51-2.94,.37-4.42,.42-4.48,.15-8.73-.95-13.51,.67-5.26,1.77-10.57-2.05-15.48-4.29-5.4-2.47-10.5-5.66-14.9-9.78-.81-.76-2.18-1.34-1.71-2.72Zm-131.7-1.78c-3.25-.99-5.38-3.27-5.58-6.3-.2-3.21,2.91-4.14,5.54-4.67,2.99-.6,5.24-1.96,6.52-4.79,2.35-5.22,6.87-7.33,12.11-7.16,6.49,.23,11.34-1.04,15.93-6.59,6.74-8.15,24.1-6.69,30.88,3.29,2.4,3.52,5.21,5.4,9.39,6.46,5.1,1.3,10.13,2.96,15.25,4.3,1.55,.4,3.2,1.28,4.28,2.43,2.06,2.21,3.84,4.94,2.5,8.09-1.23,2.88-4.14,2.95-6.87,2.91-1.67-.02-3.33,0-5,0-8.95,.1-17.72,1.92-26.6,2.75-6.8,.63-13.57,.52-20.19-1.6-6.84-2.18-13.54-3.44-20.64-.21-5.5,2.51-11.51,2.9-17.52,1.09Zm1049.33,439.99c-4.33,3.98-9.98,5.4-15.36,6.71-15.1,3.68-30.39,6.51-45.81,8.57-9.99,1.33-20.01,2.5-30.03,3.58-12.83,1.38-25.65,2.9-38.51,3.8-9.25,.64-18.49,1.49-27.73,2.16-20.32,1.47-40.66,2.76-61,3.97-7.28,.43-14.61,.75-21.87,.84-12.81,.15-25.58,.94-38.35,1.44-22.92,.89-45.84,1.12-68.73,2.08-16.81,.7-33.59,.21-50.37,.76-67.26,2.22-134.53,.78-201.8,.68-17.09-.02-34.28,.28-51.34-.94-12.49-.89-24.94-.14-37.38-.84-19.24-1.07-38.49-1.44-57.73-2.11-13.42-.46-26.83-1.36-40.25-1.92-16.05-.67-32.09-1.83-48.12-2.94-17.84-1.23-35.72-2.15-53.48-4.12-23.65-2.63-47.39-4.45-70.89-8.56-13.06-2.29-26.05-4.54-38.76-8.32-3.38-1-6.45-2.64-9.28-4.73-3.71-2.74-3.37-6.84,.65-9.09,9.12-5.11,19.29-6.87,29.3-9.07,17.47-3.82,35.26-5.54,52.96-7.83,1.2-.15,2.39-.31,3.59-.46,1.18-.15,2.36-.3,3.54-.44,1.72-.21,3.45-.42,5.18-.62,.76-.09,1.52-.18,2.28-.26,.77-.09,1.55-.18,2.34-.26,.78-.09,1.56-.18,2.34-.25,.77-.09,1.54-.17,2.31-.24,1.19-.12,2.37-.23,3.55-.34,1.48-.14,2.97-.26,4.46-.38s2.98-.23,4.47-.33c2.63-.18,5.26-.33,7.9-.43,1.27-1.45,1.77-3.61,3.91-4.26,1.93-.59,3.61-.68,3.81,2.01h.01c1.2-.53,1.21,.69,1.73,1.17,5.77-.39,11.55-.78,17.32-1.16-4.19-9.82-13.27-20.53-24.36-20.23-12.12,.33-24.22,1.26-36.36,1.42-12.06,.16-19.71-5.92-25.06-15.69-5.28-9.65-7.64-20.53-12.3-30.47-.76-.45-.95-1.17-.92-1.99-3.62-3.69-5.6-8.57-10-11.88-5.12-3.86-10.87-6.16-16.38-9.09-6.76-3.61-13.91-6.69-18.91-12.89-2.09-.03-3.68-.71-3.97-3.07-12.88-6.62-22.87-25.85-20.79-40.03,.3-2.02,1.04-3.83,2.74-5.12,.07-.63,.13-1.27,.19-1.91,9.5-13.31,21.63-22.09,38.58-23.08,13.07-.77,25.44,2.46,37.27,7.12,11.93,4.7,23.09,4.57,34.51-.92,6.54-3.14,13.8-4.75,19.77-9.13-17.32-13.16-35.1-25.77-51.38-40.24-9.7-8.61-19.15-17.56-25.09-29.44-5.7-11.38-3.23-21.04,7.33-28.21,13.03-8.85,26.72-7.67,40.5-2.27,9.96,3.9,19.06,9.36,27.28,16.26,.58,.48,1.48,.58,2.24,.85,.09-16.95,15.89-28.96,32.65-25.22,12.92,2.88,22.52,10.87,31.89,19.4,3.14,2.87,6.13,5.91,9.79,9.45-.88-8.96-1.63-17.32-2.56-25.66-.27-2.45-2.22-2.74-4.43-2.97-16.71-1.77-31.73-8.02-45.38-17.67-.78-.56-1.3-1.48-1.94-2.23-3.04-.95-5.14-2.85-6.03-5.98-.32-.34-.65-.68-.97-1.02-7.49-1.39-13.76-4.48-17.89-11.37-2.09-3.49-3.43-7.18-4.67-10.96-.79-2.41,.44-2.53,2.33-1.84,8.15,2.98,14.32,8.3,18.42,15.88,1.33,2.47-.29,5.83,1.82,8.28,.34,.33,.67,.66,1.01,.98,3.04,.97,5.14,2.88,5.98,6.02,2.85-.43,4.43,2.02,6.68,2.97,2.15,.91,3.16,.39,3.29-1.89,.61-11.02-2.39-21.33-6.27-31.45-.21-.56-.81-1.09-1.36-1.38-9.14-4.65-11.08-13.28-12.31-22.28-.15-1.09-.49-2.52,.55-3.28,1.27-.91,2.12,.51,2.98,1.13,6.37,4.61,12.75,10.54,12.57,18.24-.32,14.29,8.34,27.06,5.82,41.43-.42,2.42,.98,3.55,2.95,4.54,9.85,4.97,20.13,8.5,31.11,9.97,3.41,.46,4.79-.32,4.02-4.1-3.4-16.62-8.36-32.73-14.95-48.35-4.88-11.57-10.71-22.66-17.4-34.1,2.49-.01,3.67,3.97,6.13,.52-2.08,4.45,.5,7.08,2.12,10.14,12.01,22.73,21.22,46.5,25.98,71.85,2.17,11.55,3.63,23.22,3.99,34.98,.14,4.32,3.52,6.65,5.52,9.77,5.55,8.64,11.45,17.06,17.17,25.58,.59,.87,1.11,1.66,2.28,1.63,.01-.18,.02-.36,.03-.55,.01-.18,.03-.37,.03-.55,.02-.56,.04-1.12,.05-1.68,.05-2.69-.05-5.38,0-8.07,0-.39,.02-.79,.03-1.19,.02-.5,.04-.99,.08-1.48,.03-.5,.07-.99,.13-1.49,.02-.22,.05-.44,.08-.66,.13-1.07,.32-2.14,.59-3.21-1.84-1.34-5.83-.57-4.72-4.8-.8-1.49-1.08-3.07-1.14-4.76-.9-22.81-1.31-45.63-.87-68.46-7.48-10.86-11.18-22.85-12.41-36.05-.73-7.88-.19-15.57,.8-23.21,.25-1.94,.54-3.88,.84-5.82,.5-3.24,1.04-6.47,1.57-9.71-.05-.21-.09-.42-.13-.62h0c-.06-.31-.11-.6-.13-.88-.07-.62-.06-1.2,.02-1.72-.01-.03,0-.06,0-.08,.01-.14,.04-.27,.07-.39,.03-.14,.07-.28,.11-.41,.1-.33,.23-.63,.4-.91,.03-.04,.05-.08,.07-.12,.07-.12,.14-.24,.23-.35,.04-.07,.1-.14,.16-.2,.15-.19,.32-.37,.5-.53,.06-.05,.12-.11,.18-.16,.08-.07,.17-.14,.26-.2,.08-.07,.18-.14,.27-.19,.2-.14,.42-.27,.64-.37,.09-.05,.18-.1,.27-.14,.09-.05,.18-.09,.27-.13,.19-.09,.38-.17,.58-.23,.2-.08,.41-.15,.62-.21,.12-.03,.24-.07,.37-.11,.38-.11,.78-.2,1.19-.28,1.96-4.15,6.31-5.24,9.83-6.96,15.23-7.4,31.26-12.36,48.19-14.1,.22-1.41,1.05-2.8,2.24-3.06,6.12-1.31,5.77-6.87,7.56-11.03,.68-1.58,.23-3.24-.91-4.07-3.2-2.34-4.67-6.11-7.6-8.62-7.86-3.52-12.11-10.25-15.01-17.8-3.1-8.06-.25-15.08,7.24-19.56,1.42-.84,2.92-1.7,4.49-2.09,8.42-2.09,17.2-2.7,24.9-7.55,2.5-1.58,5.96-.93,8.84,1.3,2.35,1.82,4.8,3.42,8.55,2.42,4.03-1.07,7.17,2.71,6.79,7.03-.31,3.58-2.22,6.5-5.09,8.18-3.4,1.97-3.95,4.48-3.19,7.83-.23,4.13,1.22,8.1,.87,12.29-.92,11.01-6.76,17.89-17,21.37-.08,.38-.15,.76-.23,1.14h0c.16,1.98,.52,3.96,.44,5.92-.14,3.05,2.03,4.22,4.03,5.61,11.49-.1,22.11,3.57,32.63,7.58,10.79,4.11,20.42,10.39,29.01,17.89,3.24,2.83,4.36,8.08,6.45,12.23,5.02,2.98,10.82,3.96,16.05,6.53,14.48,7.1,26.18,17.53,36.89,29.3,2.16,2.37,2.33,4.82,1.33,7.81-3.01,8.98-5.64,18.09-8.74,27.04-1.16,3.37-.52,5.12,2.68,6.7,6.33,3.12,12.46,6.62,19.88,10.62-6.89,1.84-12.38,3.31-19.39,5.18,8.33,4.04,15.26,7.41,22.21,10.76,3.29,1.59,6.56,3.27,9.94,4.65,3.4,1.38,3.18,3.02,1.08,5.49-3.67,4.29-6.96,8.92-10.76,13.09-2.27,2.49-2.86,4,.3,6.25,3.97,2.84,7.56,6.21,12.43,10.29-9.47-.61-16.92-3.17-24.46-5.38-2.48-.73-5.32-2.54-7.6,.62-2.15,4.32-6.3,6.07-12.12,4.69-7.71-1.84-15.13-4.52-22.38-7.83-3.89-1.77-5.4-3.95-4.84-7.93,.01-.97,.03-1.95,.04-2.92-.49-1.07-.53-2.06,.49-2.87-.45-3.28-3.68-3.43-5.7-4.77-3.25-2.14-6.88-3.71-10.34-5.52-2.18,3.55-.74,7.45-.99,11.17-.27,4.14-.17,8.3-.23,12.46,.36,4.26-3.83,3.1-5.67,4.74-1.5,19.17-3.97,38.21-6.66,57.24-3.84,27.24-8.84,54.28-13.58,81.37-4.11,23.5-8.98,46.86-13.32,70.33-1.59,8.62-3.9,17.12-4.6,25.91,11.57-1.26,23.18-.97,34.78-1.04,1.73-.01,3.65,.42,3.74-2.6,.07-2.22,2.34-1.03,3.64-1.32,.3,.3,.6,.6,.9,.9h0c2.25-.87,1.24-3.14,1.98-4.67,.83-1.74,1.05-4.36,3.58-3.95,3.03,.49,2.07,3.31,1.95,5.27-.14,2.34-1.77,4.97,1.9,6.05,1.47-.22,2.94-.6,4.42-.62,55.43-.62,110.87-1.53,166.31-.97,.08-.08,.15-.18,.21-.28,.12-.2,.22-.42,.32-.65,.09-.2,.19-.4,.31-.57,.04-.06,.08-.11,.13-.16,.06-.07,.12-.14,.2-.18,.06-.05,.12-.09,.19-.12,.06-.04,.13-.07,.21-.08,.05-.02,.1-.03,.16-.04,.02-.01,.05-.01,.08-.02,.02-.78,.21-1.38,.52-1.81,.04-.06,.09-.12,.14-.17,.08-.1,.17-.18,.26-.24,.09-.08,.19-.14,.29-.18,.12-.06,.24-.11,.36-.15,.11-.02,.23-.05,.34-.06,.12-.02,.25-.03,.38-.03,.3,0,.63,.04,.97,.13,2.21,.54,3.12,2.22,2.93,4.48,26.88,.37,53.77,.74,80.65,1.1-5.04-26.92-10.19-53.82-15.11-80.77-6.49-35.6-12.97-71.21-17.73-107.1-1.75-13.15-4.32-26.23-3.81-39.6-.35-.15-.73-.25-1.11-.33-.14-.03-.28-.05-.42-.07-.14-.03-.29-.05-.43-.06-.59-.08-1.2-.12-1.8-.2-.27-.03-.53-.06-.79-.12-.13-.02-.26-.05-.39-.08-.01,0-.03,0-.05-.01-.12-.03-.24-.06-.36-.1-.12-.04-.24-.08-.35-.13-.12-.04-.25-.1-.36-.16-.09-.04-.17-.08-.25-.14-.14-.08-.28-.18-.41-.29-.1-.08-.2-.17-.3-.27-.08-.08-.16-.17-.23-.27-.11-.13-.21-.28-.3-.44-.02-.03-.03-.05-.04-.07-.08-.13-.15-.27-.21-.43-.06-.12-.11-.26-.16-.4-.03-.09-.06-.17-.08-.26-.03-.09-.06-.19-.08-.29-2.91-10.59-3.47-21.54-4.89-32.35-.56-4.27-.73-8.59-1.08-12.88-3.09-.28-5.73,.31-7.99,2.81-2.25,2.5-5.17,2.66-8.12,.93-7.1,9.85-12.17,21.01-19.73,30.57-1.03,1.29-2.05,2.65-3.3,3.71-2.6,2.19-5.18,3.2-8.22,.23-2.96-2.88-6.24-5.51-9.66-7.85-3.11-2.14-2.44-3.94-.44-6.29,3.45-4.05,6.66-8.3,10.15-12.32,2.47-2.84,3.04-4.63-1.2-6.51-8.82-3.93-17.41-8.35-26.1-12.56-1.46-.71-3-1.29-4.08-2.99,5.28-2.45,11.27-2.4,17.2-5.42-6.65-3.59-12.52-6.97-18.59-9.95-3.26-1.59-4.22-3.06-2.9-6.85,4.25-12.24,8.55-24.49,11.14-37.25,1.53-7.56,4.47-14.62,8.52-21.19-.9-1.96-1.76-3.94-2.71-5.87-1.66-3.37-.64-6.39,1.96-8.44,4.56-3.56,9.37-6.79,14.45-9.67,4.47-2.54,7.71-2.09,10.88,1.7,.72,.87,1.78,1.47,2.68,2.19,16.2-4.46,30.39-2.04,41.19,12,7.34-7.25,15.41-13.45,24.99-17.48,3.55-2.22,5.48-5.38,5.61-9.6-.1-.63-.2-1.26-.29-1.89-1.71,.58-3.45,.89-5.2,.89-1.53,0-3.05-.23-4.54-.72-1.83-.6-3.5-1.56-4.97-2.81-.91-.78-1.74-1.67-2.48-2.67-1.07-1.44-1.95-3.1-2.62-4.94-.52-1.43-.89-2.92-1.11-4.46-.61-4.02-.21-8.34,1.16-12.53,.07-.21,.14-.41,.22-.62-.29,.08-.6,.12-.92,.14-8.34-11.43-1.27-27.68,12.79-29.42,8.15-1.01,16.36-.36,23.43,3.45,2.93,1.57,5.32,4.59,9.02,5.37,.82,.17,1.67,1.26,.81,1.79-3.47,2.15-.77,3.98,.2,5.76,4.82,8.86,2.09,19.63-6.36,24.74-1.12,.15-1.52,1.06-1.99,1.9-1.24,.18-2.5,.35-3.74,.53-1.19,2.79-2.77,5.26-4.61,7.34,.02,.07,.04,.13,.08,.2,.06,.11,.13,.22,.22,.33h0c.1,.12,.22,.23,.35,.34h0s.07,.16,.07,.16l.08,.18c.05,.11,.1,.21,.17,.31,.12,.19,1.3,2.15,1.63,3.78,.38,1.87,1.8,3.15,3.48,3.72,1.81,.61,3.82,.62,5.3,2.07,19.14-1.76,37.85-.56,55.36,8.34,3.67,1.86,7.13,4.24,8.83,8.33,4.02,2.84,1.55,4.65-1.03,6.44,1.93,11.23-.07,22.1-3.08,32.87,5.64,15.99,9.17,32.55,12.56,49.11,3.09,15.1,5.49,30.34,8.12,45.54,.31,1.78,.11,3.64,.15,5.46,.86,4.09-3.29,3.22-4.85,4.91,1.4,5.98,2.81,11.95,4.21,17.93,3.88-8.04,7.3-16.35,11.75-24.06,9.2-15.94,18.49-32.04,35.22-41.58,12.99-7.41,26.32-7.47,39.12,.46,8.55,5.29,10.96,14.04,11.66,23.53,.53,7.05-1.16,13.82-2.02,20.71,.01,0,.01-.01,.02-.01v.03c4.36-2.28,5.95-6.94,8.58-10.57,12.25-17,24.85-33.66,40.36-47.87,11.86-10.87,24.76-20.26,40.54-24.5,15.76-4.24,30.18-1.1,42.67,9.64,8.86,7.61,8.48,17.4,5.86,27.43-3.16,12.11-10.22,22.29-17.19,32.4-11.95,17.37-25.89,33.13-40.35,48.45-5.48,5.8-10.92,11.63-16.35,17.47-5.43,5.85-10.85,11.69-16.29,17.53,5.3,3.8,11.62,5.3,17.54,7.7,8.13,3.28,16.24,6.63,24.86,8.53,5.61,1.24,11.1,1.14,16.64-.64,11.97-3.85,23.6-8.84,36.06-11.09,20.79-3.75,41.52,6.6,51.11,21.41,1.29,.61,1.87,1.66,1.87,3.07,5.19,8.56,3.78,17.34-.01,25.68-4.02,8.85-10.31,16.18-17.89,22.32-.09,.19-.19,.36-.29,.53-.1,.17-.21,.34-.33,.49-.04,.06-.08,.11-.13,.17-.01,.02-.03,.05-.05,.07-.1,.13-.21,.25-.33,.36-.11,.12-.23,.23-.35,.32-.2,.17-.41,.32-.64,.46-.18,.1-.37,.2-.57,.28-.2,.09-.41,.16-.62,.22-.22,.07-.44,.12-.68,.16-.53,.62-1.08,1.2-1.65,1.77-.19,.19-.38,.38-.57,.56-.29,.28-.58,.55-.87,.82-.25,.22-.5,.44-.75,.65-.59,.5-1.19,.98-1.8,1.44-.25,.19-.5,.38-.75,.56-.03,.02-.06,.04-.08,.06-.56,.4-1.14,.8-1.72,1.19-3.18,2.12-6.57,3.95-9.91,5.84-4.46,2.53-9.16,4.63-13.57,7.24-6.65,3.94-10.51,10.39-14.37,16.79-.31,.69-.63,1.38-.94,2.06-3.07,8.94-5.71,18.05-9.3,26.77-6.08,14.81-14.09,22.88-31.48,22.16-9.11-.38-18.2,.16-27.34-.75-13.2-1.31-21.65,3.66-25.98,13.75,16.83,1.3,33.66,2.52,50.47,3.92,10.72,.89,21.4,2.08,32.11,3.05,1.51,.14,2.97,.23,4.32,.98,.26-.53,.52-1.05,.78-1.58,2.42-2.66,4.11-2.97,4.32,1.37,.9,.6,1.8,1.21,3.11,2.08-.6-3.86,.45-7.19,.84-10.59,.23-2.03,1.16-4.1,3.55-4.09,2.36,.01,3.46,2.11,3.59,4.1,.15,2.21,.42,4.45,.27,6.67-.04,.69-.13,1.38-.28,2.06-.05,.23-.11,.45-.17,.68-.12,.45-.27,.91-.45,1.36,8.21,.48,16.31,1.68,24.34,3.21,8.04,1.52,16.02,3.36,24.02,5.13,5.77,1.28,11.01,3.62,15.96,6.6,4.34,2.62,4.37,4.68,.57,8.15ZM251.82,370.21c-.8,1.81-2.2,2.84-4.3,2.8-2.1-.03-3.71-1.05-4.18-2.92-2.16-8.57-.66-16.74,3.49-24.39,1.47-2.72,2.47-.92,3.21,.79,2.15,4.92,3.26,10.05,2.99,15.73,.26,2.57-.05,5.36-1.21,7.99Zm903.76-116.84c-1.02,2.15-2.7,3.76-5.43,3.69-2.5-.07-4.99-.02-7.49-.02-8.97-.17-17.74,1.65-26.57,2.84-6.74,.9-13.35-.21-19.63-2.07-8.22-2.45-15.96-1.95-23.83,.84-5.19,1.84-10.34,2.1-15.39-.63-2.3-1.24-4.25-2.61-4.27-5.55s2.55-3.37,4.41-4.01c3.74-1.29,6.5-3.21,8.65-6.77,3.4-5.64,9.38-6.43,15.29-5.88,4.01,.37,6.76-.29,9.39-3.75,7.75-10.2,24.53-11.26,31.61-1.26,5.64,7.95,13.3,9.82,21.64,11.16,4.37,.7,7.74,2.42,10.43,5.93,1.36,1.78,2.1,3.56,1.19,5.48Z"/>
      <path class="cls-12" d="M723.3,214.43c-.97-1.78-3.67-3.61-.2-5.76,.86-.53,0-1.62-.81-1.79-3.7-.78-6.09-3.8-9.02-5.37-7.07-3.81-15.28-4.46-23.43-3.45-14.06,1.74-21.13,17.99-12.79,29.42,.32-.02,.63-.06,.92-.14,.4-.09,.77-.24,1.12-.42,2.25-1.16,3.53-3.77,5.9-4.74,2.04-1.82,2.59,1.57,4.21,1.21,3.87-.83,7.74-1.66,11.61-2.49l.05-.09c1.03-1.55,2.06-3.11,3.1-4.66-.01,.02-.02,.04-.01,.06-.03,.13-.06,.25-.07,.37-.11,.88,.13,1.62,.51,2.31,.09,.17,.19,.33,.3,.49,.16,.24,.33,.47,.51,.7,.24,.31,.48,.62,.71,.93,0,0,.13,.09,.13,.1,.23,.05,.44,.12,.64,.19,.1,.04,.19,.08,.28,.12,1.03,.46,1.59,1.2,1.81,2.13,.03,.1,.05,.21,.06,.31,.01,.06,.02,.11,.02,.16,.02,.1,.03,.2,.03,.3,.03,.45,0,.94-.08,1.45,.17,.62,.34,1.23,.51,1.84,.26,0,.52,.01,.77,.02,.19,.01,.39,.01,.57,.02,.51,.03,.98,.07,1.4,.13,.15,.02,.3,.04,.44,.06,.17,.03,.34,.06,.49,.1,.16,.03,.31,.07,.44,.11,.17,.05,.33,.1,.48,.16,.3,.11,.55,.24,.76,.41,.11,.08,.2,.16,.28,.25,.09,.09,.16,.18,.22,.28,.05,.09,.1,.18,.14,.27,.01,.03,.02,.06,.03,.09,.03,.1,.06,.21,.08,.32,.02,.12,.03,.25,.03,.38,0,.39-.08,.83-.24,1.32-.08,.26-.18,.54-.31,.84-.22,.51-.5,1.07-.84,1.69l-.03,.04c-.29,.32-.59,.64-.88,.96-.24,1.4-.59,2.81-1.05,4.2-.26,.8-.56,1.58-.88,2.33,1.24-.17,2.5-.34,3.74-.52,.47-.84,.87-1.75,1.99-1.9,8.45-5.11,11.18-15.88,6.36-24.74Zm-18.79,1.18s-.09,.08-.15,.12c0,.01-.02,.02-.03,.03-.04,.02-.08,.05-.11,.08-.08,.05-.15,.11-.2,.17,0,.02-.01,.04-.01,.06-.02,.02-.03,.05-.05,.07,0-.03,.01-.06,.02-.09,.01-.01,.02-.03,.04-.04,.1-.4,.18-.81,.28-1.22,.51,.38,.43,.62,.21,.82Z"/>
      <path class="cls-11" d="M707.25,249.81h0s-.01,.01-.01,.01c-.13-.11-.25-.23-.34-.34,.1,.11,.22,.22,.35,.33Z"/>
      <path class="cls-11" d="M714.95,241.07c-1.24,.18-2.5,.35-3.74,.53-.08,.01-.15,.02-.23,.03h0c.08-.02,.15-.03,.23-.04,1.24-.17,2.5-.34,3.74-.52Z"/>
      <path class="cls-2" d="M700.81,220.9c-2.57,2.87-6.34,2.88-9.65,3.99-1,.33-1.9-.22-1.96-1.5,3.87-.83,7.74-1.66,11.61-2.49Z"/>
      <path class="cls-2" d="M715.44,230.21c0,.39-.08,.83-.24,1.32-.08,.26-.18,.54-.31,.84-.22,.51-.5,1.07-.84,1.69,.4-1.1,.35-1.88,.06-2.47-.04-.06-.07-.12-.11-.18-.04-.07-.08-.13-.14-.19-.04-.06-.09-.12-.15-.18-.06-.06-.12-.12-.18-.17-.13-.12-.27-.23-.42-.32h0c-.13-.1-.27-.18-.41-.26-.02,0-.04-.02-.06-.03-.05-.03-.1-.06-.15-.08-.21-.11-.44-.22-.66-.33-.15-.08-.3-.15-.45-.22-.09-.05-.19-.1-.28-.15-.56-.29-1.07-.62-1.41-1.07-.04-.06-.08-.11-.11-.17-.04-.06-.08-.12-.11-.19-.02-.06-.05-.11-.07-.18-.03-.08-.06-.17-.08-.26,.26,0,.52,.01,.77,.02,.19,.01,.39,.01,.57,.02,.51,.03,.98,.07,1.4,.13,.15,.02,.3,.04,.44,.06,.17,.03,.34,.06,.49,.1,.15,.03,.3,.07,.44,.11,.17,.05,.33,.1,.48,.16,.3,.12,.55,.25,.76,.41,.11,.08,.2,.16,.28,.25,.09,.09,.16,.18,.22,.28,.05,.09,.1,.18,.14,.27,.01,.03,.02,.06,.03,.09,.03,.1,.06,.21,.08,.32,.02,.12,.03,.25,.03,.38Z"/>
      <path class="cls-2" d="M714.66,228.62c-.21-.16-.46-.29-.76-.41,.3,.11,.55,.24,.76,.41Z"/>
      <path class="cls-2" d="M704.01,216.07s-.03,.05-.05,.07c0-.03,.01-.06,.02-.09l.03,.02Z"/>
      <path class="cls-2" d="M705.91,221.01c-1.68-.07-3.37-.13-5.05-.2,1.03-1.55,2.06-3.11,3.1-4.66-.01,.02-.02,.04-.01,.06-.04,.12-.06,.25-.07,.37-.11,.88,.13,1.62,.51,2.31,.09,.17,.19,.33,.3,.49,.16,.24,.33,.47,.51,.7,.24,.31,.48,.62,.71,.93Z"/>
      <path class="cls-2" d="M708.8,225.77c-1.92-.96-2.42-2.76-2.76-4.66,.23,.05,.44,.12,.64,.19,.1,.04,.19,.08,.28,.12,1.03,.46,1.59,1.2,1.81,2.13,.03,.1,.05,.21,.06,.31,.01,.06,.02,.11,.02,.16,.02,.1,.03,.2,.03,.3,.03,.45,0,.94-.08,1.45Z"/>
      <path class="cls-2" d="M712.14,235.52h-.01s0,0,0,0h.01Z"/>
      <path class="cls-2" d="M703.98,216.05s.02-.03,.04-.04c0,.02-.01,.04-.01,.06l-.03-.02Z"/>
      <path class="cls-2" d="M704.51,215.61c-.05,.04-.1,.08-.15,.12,0,.01-.02,.02-.03,.03-.03,.02-.07,.05-.11,.08-.08,.05-.15,.11-.2,.17,.1-.4,.18-.81,.28-1.22,.51,.38,.43,.62,.21,.82Z"/>
      <path class="cls-3" d="M622.97,281.07c-.24-.36-.48-.72-.7-1.1,0-.01,.23-.17,.35-.26,.15,.43,.3,.85,.45,1.28,0,0-.1,.08-.1,.08Z"/>
      <path class="cls-3" d="M616.95,287.09c-.13-.17-.26-.33-.39-.5,.17,.13,.33,.26,.5,.39,0,0-.1,.1-.1,.1Z"/>
      <path class="cls-6" d="M448.25,651.87c.4,1.16,.63,1.59,.68,2.04,.03,.25-.26,.77-.4,.77-.41,0-.81-.21-1.21-.34,.16-.41,.31-.82,.93-2.47Z"/>
      <path class="cls-5" d="M696.16,244.1c-.14,.62-.27,1.25-.41,1.87-.28,.28-.55,.56-.83,.85-.63,.41-1.26,.83-1.9,1.24h-.01c-4.08,.28-7.58-.49-8.99-5,4.03,.59,8.26-1.31,12.14,1.04Z"/>
      <path class="cls-9" d="M702.08,250.11h-.01s0,.01,0,0h.01Z"/>
      <path class="cls-6" d="M970.96,695.46c1.9,4.15,.06,7.44,.99,10.83-2.35-1.64-2.59-4.12-.99-10.83Z"/>
      <path class="cls-9" d="M694.92,246.82c-.26,.98-1.02,1.2-1.9,1.24,.64-.41,1.27-.83,1.9-1.24Z"/>
      <path class="cls-9" d="M695.75,245.97c.14-.62,.27-1.25,.41-1.87,.96,.86,.76,1.47-.41,1.87Z"/>
    </g>
    <path class="cls-16" d="M712.13,235.52h0s.01,0,.01,0h-.01Zm-1.15,6.1h0c.08,0,.15-.01,.23-.02h0c-.08,0-.15,.01-.23,.02Z"/>
    <path class="cls-14" d="M714.11,231.59c-.04-.06-.07-.12-.11-.18-.04-.07-.08-.13-.14-.19-.04-.06-.09-.12-.15-.18-.06-.06-.12-.12-.18-.17-.13-.11-.27-.22-.42-.32h0c-.13-.1-.27-.18-.41-.26-.02,0-.04-.02-.06-.03-.05-.03-.1-.06-.15-.08-.21-.11-.44-.22-.66-.33-.15-.08-.3-.15-.45-.22-.09-.05-.19-.1-.28-.15-.56-.29-1.07-.62-1.41-1.07-.04-.06-.08-.11-.11-.17-.04-.06-.08-.12-.11-.19-.02-.06-.05-.11-.07-.18-.03-.08-.06-.17-.08-.26-.17-.61-.34-1.22-.51-1.84-1.92-.96-2.42-2.76-2.76-4.66,0-.01-.13-.1-.13-.1-1.68-.07-3.37-.13-5.05-.2l-.05,.09c-2.57,2.87-6.34,2.88-9.65,3.99-1,.33-1.9-.22-1.96-1.5-1.62,.36-2.17-3.03-4.21-1.21-2.37,.97-3.65,3.58-5.9,4.74-.35,.18-.72,.33-1.12,.42-.08,.21-.15,.41-.22,.62-1.37,4.19-1.77,8.51-1.16,12.53,.22,1.54,.59,3.03,1.11,4.46,.67,1.84,1.55,3.5,2.62,4.94,.74,1,1.57,1.89,2.48,2.67,1.47,1.25,3.14,2.21,4.97,2.81,1.49,.49,3.01,.72,4.54,.72,1.75,0,3.49-.31,5.2-.89,2.29-.77,4.5-2.04,6.51-3.73,.11-.1,.23-.19,.34-.3,.78-.68,1.54-1.42,2.24-2.23,1.84-2.08,3.42-4.55,4.61-7.34-.08,.01-.15,.02-.23,.03h0c.08-.02,.15-.03,.23-.04,.32-.75,.62-1.53,.88-2.33,.46-1.39,.81-2.8,1.05-4.2,.29-.32,.59-.64,.88-.96l.03-.04c.4-1.1,.35-1.88,.06-2.47Zm-18.36,14.38c-.28,.28-.55,.56-.83,.85-.26,.98-1.02,1.2-1.9,1.24h-.01c-4.08,.28-7.58-.49-8.99-5,4.03,.59,8.26-1.31,12.14,1.04,.96,.86,.76,1.47-.41,1.87Zm6.31,4.17h0s0-.01,.01-.01c0,.01-.01,.01-.01,.01Zm.01-.02h0s.01-.01,.01-.01h-.01Zm10.06-14.58h0s0-.01,.01-.01h-.01Z"/>
  </g>
</svg>